<svg width="269" height="227" viewBox="0 0 269 227" fill="none" xmlns="http://www.w3.org/2000/svg">
<ellipse rx="5.79589" ry="5.93384" transform="matrix(0.770894 -0.636964 0.769801 0.638284 141.343 98.8633)" fill="#CCDDE2"/>
<ellipse rx="5.7986" ry="5.93656" transform="matrix(0.770897 -0.63696 0.769804 0.63828 123.181 97.0352)" fill="#CCDDE2"/>
<path d="M75.7695 65.0506C75.7695 65.0506 103.855 26.3456 159.996 41.4928C216.047 56.6424 202.802 114.152 202.766 114.303C203.011 113.249 212.721 112.245 213.749 112.122C242.393 108.618 263.699 130.669 265.812 152.402C268.435 179.358 243.245 198.449 214.556 206.67" stroke="#CCDDE2" stroke-width="5.5"/>
<path fill-rule="evenodd" clip-rule="evenodd" d="M208.595 165.405C212.73 173.835 215.076 183.542 215.434 193.201C215.515 184.407 213.994 174.691 209.187 165.504C207.656 162.585 205.81 159.787 203.671 157.142C203.663 157.123 203.647 157.105 203.627 157.093C197.03 148.932 187.053 141.686 172.318 136.515L160.011 133.547C160.011 133.547 161.959 137.163 159.243 141.842C156.527 146.521 149.837 152.31 142.729 150.945C135.621 149.58 127.808 146.447 128.985 140.093C130.163 133.74 130.671 131.482 130.671 131.482L88.6352 131.821C93.1408 136.839 99.3763 148.371 86.7798 167.01L94.6048 166.762C94.6048 166.762 89.3822 207.436 101.223 223.209C101.306 223.335 101.399 223.456 101.492 223.565L168.344 223.335H172.99C173 223.314 173.008 223.292 173.016 223.27C173.023 223.25 173.029 223.23 173.035 223.209H156.871C155.027 223.208 153.259 222.599 151.959 221.517C151.163 220.86 150.574 220.052 150.241 219.163C150.034 218.609 149.933 218.031 149.942 217.452C149.948 214.273 153.057 211.695 156.897 211.685H196.886C197.083 211.685 197.293 211.685 197.484 211.704C197.518 211.709 197.554 211.709 197.588 211.704H197.648C197.601 211.712 197.555 211.717 197.508 211.723C197.426 211.734 197.344 211.744 197.263 211.761H197.242C197.435 211.765 197.629 211.758 197.821 211.741C198.138 211.725 198.453 211.694 198.766 211.65C198.942 211.628 199.115 211.601 199.288 211.568L199.471 211.541C199.625 211.513 199.78 211.477 199.935 211.441C199.972 211.432 200.01 211.424 200.047 211.415C200.076 211.408 200.105 211.402 200.134 211.395C200.352 211.338 200.561 211.272 200.77 211.205C200.979 211.138 201.189 211.069 201.398 210.982C201.419 210.982 201.44 210.976 201.458 210.965C201.643 210.888 201.828 210.809 202.001 210.732C202.374 210.561 202.731 210.369 203.071 210.156L203.37 209.956C203.635 209.783 203.886 209.596 204.123 209.397C204.344 209.214 204.554 209.022 204.75 208.821L204.782 208.788C204.968 208.597 205.154 208.406 205.321 208.195C205.47 208.012 205.62 207.822 205.739 207.629C205.82 207.513 205.9 207.382 205.969 207.263C205.993 207.236 206.017 207.216 206.017 207.186C206.077 207.09 206.131 206.991 206.178 206.889C206.322 206.626 206.447 206.356 206.552 206.081C206.644 205.833 206.725 205.571 206.794 205.312C206.83 205.178 206.862 205.042 206.886 204.909C206.934 204.661 206.967 204.414 206.991 204.149C206.991 204.073 206.997 203.994 207.003 203.914C207.009 203.835 207.015 203.756 207.015 203.679C207.017 202.854 206.868 202.034 206.573 201.246C206.534 201.119 206.484 200.994 206.423 200.873C206.375 200.744 206.316 200.619 206.247 200.497C205.75 199.538 205.041 198.665 204.156 197.922C204.049 197.827 203.936 197.737 203.818 197.653C203.476 197.386 203.107 197.144 202.715 196.931C202.665 196.905 202.616 196.877 202.566 196.85C202.487 196.806 202.407 196.761 202.321 196.72C201.241 196.162 200.037 195.79 198.78 195.625C198.293 195.556 197.799 195.52 197.304 195.519L191.081 195.489L181.977 195.452H181.705C181.436 195.432 181.17 195.422 180.889 195.422H179.521C179.614 188.127 178.027 182.609 175.873 178.507L175.873 178.507C175.907 178.452 186.248 161.616 208.595 165.405ZM209.393 223.199C209.393 223.199 210.009 221.787 210.857 219.317C210.286 220.645 209.65 221.94 208.951 223.199H209.393ZM196.886 223.199C197.155 223.199 197.421 223.192 197.687 223.172C197.651 223.175 197.615 223.177 197.582 223.179C197.372 223.194 197.291 223.199 198.153 223.199H196.886Z" fill="#353642"/>
<path d="M132.705 121.808C132.705 121.808 131.695 126.883 130.65 131.478C127.662 131.505 124.674 131.525 121.719 131.544C120.225 124.586 121.848 119.135 123.775 115.502C126.204 120.087 129.873 121.482 132.705 121.808Z" fill="#3FBDF1"/>
<path d="M181.813 140.118C175.738 137.411 169.262 135.37 162.55 134.047L160.351 133.733C160.351 133.733 158.714 130.652 158.705 130.642C157.937 129.027 156.664 126.883 156.27 125.181C155.79 123.172 155.673 121.114 155.924 119.075C156.354 116.049 158.057 109.646 161.134 107.628C163.701 105.956 164.758 106.307 166.213 103.694C167.259 101.829 167.683 98.6956 165.652 97.3206C163.399 95.8121 162.437 96.5787 159.742 96.8112C149.5 97.652 143.647 91.5511 139.882 84.5006C139.284 83.3556 138.663 82.1463 137.686 81.172C136.566 80.0493 135.015 79.797 133.745 78.8894C133.204 78.4987 132.834 77.8607 133.094 77.3067C133.247 77.042 133.469 76.8089 133.745 76.6242C136.145 74.7944 139.027 73.4524 142.162 72.7045C147.121 71.5177 152.361 71.3825 157.399 72.3113C162.658 73.753 167.385 76.4832 170.567 80.6551C174.956 86.4197 176.013 92.3994 173.555 98.3593C171.036 104.463 168.224 111.632 172.957 117.505C179.258 125.307 183.056 130.795 181.813 140.118Z" fill="#3FBDF1"/>
<path d="M130.662 131.478C127.674 131.505 124.686 131.525 121.731 131.544C99.2154 131.641 77.6644 131.381 55.0767 134.735" stroke="black" stroke-width="5.5"/>
<path d="M159.996 133.553C160.853 133.709 161.702 133.872 162.55 134.047C165.858 134.709 169.114 135.535 172.302 136.52C175.573 137.528 178.751 138.729 181.813 140.116C181.819 140.111 181.83 140.111 181.836 140.116C186.653 142.276 191.104 144.952 195.075 148.074C198.396 150.752 201.267 153.787 203.612 157.098C203.632 157.111 203.647 157.128 203.656 157.148C205.558 159.79 207.209 162.551 208.595 165.405C212.73 173.835 215.076 183.542 215.434 193.202C215.76 202.324 214.308 211.408 210.872 219.316C210.3 220.645 209.665 221.939 208.966 223.199C208.921 223.296 208.861 223.382 208.816 223.479" stroke="black" stroke-width="5.5"/>
<path d="M172.978 223.355C172.978 223.355 172.978 223.335 172.978 223.325C172.997 223.284 173.012 223.242 173.022 223.199" stroke="black" stroke-width="5.5"/>
<path d="M165.093 167.742C165.093 167.742 171.595 170.356 175.867 178.517C178.016 182.62 179.608 188.137 179.515 195.432V195.452C179.468 200.104 178.727 205.475 177.006 211.665V211.7" stroke="black" stroke-width="5.5"/>
<path d="M42.0527 64.1381C43.2001 60.5448 45.0405 56.8403 46.4239 55.2823C48.599 52.8587 51.4374 50.5489 55.0885 50.7567C57.4339 50.8828 59.7375 51.9561 59.8421 54.0829C59.9407 56.3902 57.0007 58.9522 56.0566 61.121C55.1602 63.2132 54.7509 65.6491 55.223 67.8501C55.695 70.051 58.0823 71.7698 60.6578 72.2421C61.6347 72.455 62.6737 72.3385 63.547 71.9182C66.0687 70.5976 65.5398 67.081 65.4383 65.0061C65.3188 62.679 65.3217 60.0478 67.7209 58.4551C69.4837 57.2854 72.1578 58.0619 73.4575 59.3479C75.7163 61.5736 75.8269 64.9245 75.9404 67.6646C76.278 75.9195 74.5062 83.8331 68.698 90.7822C65.7102 94.3706 62.6327 97.5904 61.4227 101.992C57.658 115.673 57.2397 125.157 55.0766 139.05" stroke="black" stroke-width="5.5"/>
<path d="M100.682 223.57C89.1374 196.411 94.605 166.74 94.605 166.74L32.5903 168.367C27.2482 168.507 22.0944 166.727 18.458 163.484C14.8216 160.242 13.0587 155.856 13.6237 151.457L28.8137 105.608L32.1003 95.8268C33.1483 92.7492 32.9082 89.4688 31.419 86.5184L29.8714 83.4618C29.8714 83.4618 27.0658 78.726 33.3551 79.1711C36.7373 79.4184 40.0926 80.6079 42.931 82.1016C45.1599 83.2763 48.5601 85.549 47.5083 88.069C46.2654 91.0366 41.3923 91.7785 38.53 90.1092" stroke="black" stroke-width="5.5"/>
<path d="M31.2637 79.1467C31.2637 79.1467 25.9514 69.2546 40.5259 71.8141C55.1004 74.3737 58.5901 87.555 47.4665 86.0711" stroke="black" stroke-width="5.5"/>
<path d="M36.0684 71.2477C36.0684 71.2477 31.4074 66.5612 38.375 64.3231C45.3425 62.085 70.6432 72.6548 54.4135 83.0664" stroke="black" stroke-width="5.5"/>
<path d="M136.889 121.586C135.536 121.893 134.122 121.969 132.733 121.808C129.888 121.482 126.219 120.077 123.802 115.502C123.3 114.567 122.892 113.6 122.583 112.609C121.352 108.823 120.814 103.555 121.534 96.2105C121.675 94.7984 121.884 93.3641 122.174 91.9322C122.653 89.4413 123.427 86.9954 124.483 84.6294C124.483 84.6294 124.483 84.6097 124.507 84.5998C127.142 78.8327 131.776 73.9659 139.569 72.0938C145.412 70.6986 151.625 70.7726 157.418 72.3065C162.676 73.7483 167.403 76.4784 170.585 80.6504C174.974 86.4149 176.032 92.3947 173.573 98.3546C171.054 104.458 168.243 111.627 172.975 117.501C179.268 125.315 183.065 130.803 181.846 140.126" stroke="black" stroke-width="5.5"/>
<path d="M119.341 131.834C117.052 122.751 120.141 116.128 122.568 112.609" stroke="black" stroke-width="5.5"/>
<path d="M122.173 91.922C122.173 91.922 127.184 87.5859 132.989 94.4351" stroke="black" stroke-width="5.5"/>
<path fill-rule="evenodd" clip-rule="evenodd" d="M134.932 113.751C137.05 114.886 139.918 114.181 141.478 112.433C143.172 110.536 143.85 108.004 144.218 105.707C144.242 105.541 144.269 105.378 144.286 105.212C141.702 108.573 136.685 109.379 132.27 109.73C132.437 110.829 132.931 111.877 133.707 112.779C134.039 113.163 134.454 113.493 134.932 113.751V113.751Z" stroke="black" stroke-width="5.5" stroke-linecap="round" stroke-linejoin="round"/>
<path d="M157.941 128.882L157.929 128.872" stroke="black" stroke-width="5.5"/>
<path d="M138.229 90.5892C138.229 90.5892 139.933 88.3066 145.753 89.9882C151.573 91.6699 151.642 94.4175 151.642 94.4175" stroke="black" stroke-width="5.5"/>
<path d="M125 96.2651C125 96.2651 127.689 95.139 129.795 96.2651" stroke="black" stroke-width="5.5"/>
<path d="M139.491 97.3008C139.491 97.3008 142.18 96.1758 144.271 97.3008" stroke="black" stroke-width="5.5"/>
<path d="M132.705 121.809C132.705 121.809 131.695 126.883 130.65 131.478C130.497 132.131 130.351 132.774 130.22 133.41C129.535 136.503 128.989 139.253 128.965 140.087C128.791 147.011 136.7 151.005 144.34 150.938C155.06 150.842 161.328 142.587 160.319 134.32C159.658 132.811 158.983 131.303 158.323 129.794C157.474 127.86 156.372 125.978 155.894 123.94C155.472 121.933 155.425 119.883 155.756 117.864C156.186 114.847 156.895 110.349 159.972 108.331C162.539 106.659 165.219 105.561 166.683 102.947C167.728 101.082 167.681 98.6811 165.649 97.3061C163.396 95.7976 159.832 95.9806 157.137 96.2007C139.754 97.6721 136.861 83.1086 132.159 81.0635C128.304 79.3793 125.412 83.1581 124.507 84.5603L124.471 84.6196C124.47 84.6337 124.462 84.6468 124.45 84.6567C124.286 84.904 124.205 85.0697 124.205 85.0697" stroke="black" stroke-width="5.5"/>
<path d="M132.261 97.9414C132.261 97.9414 130.444 102.863 130.584 103.6C130.725 104.337 132.843 103.822 132.843 103.822" stroke="black" stroke-width="5.5"/>
<ellipse rx="6.53641" ry="6.69331" transform="matrix(0.770903 -0.636953 0.76981 0.638274 141.342 98.8632)" stroke="black" stroke-width="5.5"/>
<ellipse rx="6.53645" ry="6.69335" transform="matrix(0.770898 -0.636958 0.769805 0.638279 123.181 97.0355)" stroke="black" stroke-width="5.5"/>
<path fill-rule="evenodd" clip-rule="evenodd" d="M116.87 96.3938C117.17 93.7687 119.836 91.7649 123.022 91.7715H123.031C123.291 91.7724 123.55 91.7856 123.808 91.8111C127.307 92.1688 129.832 94.761 129.512 97.6675C129.212 100.295 126.54 102.3 123.351 102.29C123.091 102.289 122.832 102.276 122.574 102.25C119.075 101.892 116.55 99.3003 116.87 96.3938ZM127.24 93.9848C126.159 93.0043 124.626 92.4484 123.022 92.4544C120.258 92.4454 117.941 94.1827 117.68 96.4605C117.527 97.7822 118.057 99.0957 119.139 100.076C120.22 101.057 121.753 101.613 123.357 101.607C126.121 101.616 128.438 99.8784 128.699 97.6005C128.852 96.2788 128.322 94.9653 127.24 93.9848Z" fill="white"/>
<path d="M134.166 98.1375L130.354 97.7539" stroke="black" stroke-width="5.5"/>
<path fill-rule="evenodd" clip-rule="evenodd" d="M48.3987 28.1534C49.0889 21.0014 56.2596 15.2542 64.9242 14.8882H64.9272C71.9675 14.5861 78.5399 17.8083 81.603 23.0637C84.6662 28.3192 83.6225 34.5825 78.955 38.9554C78.9173 38.9889 78.8823 39.0244 78.8504 39.0618C77.5918 40.2094 76.1227 41.1858 74.4972 41.9552C74.0897 42.1402 73.7113 42.3661 73.3708 42.6278C68.6216 44.5968 63.0269 44.5895 58.2853 42.608C57.9275 42.3552 57.5425 42.1301 57.135 41.9354C55.5734 41.1969 54.1619 40.2598 52.9521 39.1582C49.6348 36.1818 47.9823 32.1881 48.3987 28.1534ZM75.689 37.62C75.7092 37.5901 75.7366 37.5639 75.7696 37.5433L75.7667 37.5482C79.543 34.0093 80.2217 28.8869 77.4617 24.7547C74.7018 20.6225 69.0998 18.3739 63.4706 19.1387C57.8414 19.9035 53.402 23.5164 52.3829 28.1621C51.3638 32.8078 53.9854 37.4818 58.9304 39.8358C59.2471 39.9904 59.547 40.1675 59.8268 40.365C63.4884 41.8819 67.7996 41.8819 71.4612 40.365C71.72 40.162 72.0092 39.9875 72.3217 39.8457C73.5775 39.2537 74.7137 38.5027 75.689 37.62Z" fill="#3FBDF1"/>
<path d="M73.3648 42.6306C71.9741 43.6753 71.1837 45.159 71.1897 46.7135V47.3763C71.1897 49.691 69.164 51.7659 66.4092 51.9983C64.9039 52.1261 63.4033 51.7212 62.2782 50.8837C61.153 50.0461 60.508 48.8539 60.5024 47.6013V46.7135C60.4992 45.1505 59.6983 43.6613 58.2974 42.6133C63.0388 44.5888 68.6288 44.5952 73.3768 42.6306H73.3648Z" fill="#353642"/>
<path fill-rule="evenodd" clip-rule="evenodd" d="M73.3653 42.6306C71.9746 43.6753 71.1842 45.159 71.1902 46.7134V47.3762C71.1902 49.6908 69.1645 51.7656 66.4097 51.9981C64.9043 52.1259 63.4038 51.721 62.2786 50.8834C61.1535 50.0459 60.5085 48.8537 60.5028 47.6012V46.7134C60.4996 45.1504 59.6988 43.6613 58.2979 42.6133C63.0393 44.5887 68.6293 44.5951 73.3773 42.6306H73.3653Z" stroke="black" stroke-width="5.5"/>
<path fill-rule="evenodd" clip-rule="evenodd" d="M83.3413 29.3579C83.3503 32.8964 81.7871 36.3141 78.9492 38.9606C78.9137 38.9925 78.8808 39.0264 78.8506 39.062C77.59 40.2115 76.1178 41.1889 74.4884 41.9578C74.0837 42.1452 73.7067 42.371 73.365 42.6305C68.617 44.5951 63.027 44.5887 58.2856 42.6132C57.9285 42.3563 57.5423 42.1286 57.1323 41.9331C51.241 39.13 47.8378 33.7613 48.399 28.1561C49.1551 20.4015 57.1772 14.5264 66.5684 14.8494C75.9596 15.1724 83.3651 21.5782 83.3413 29.3579V29.3579Z" stroke="black" stroke-width="5.5"/>
<path d="M60.8939 44.0994L56.8843 33.0995L55.8804 29.9836C55.8803 29.791 56.0365 29.6224 56.2613 29.5725C56.486 29.5227 56.7232 29.6041 56.8395 29.7709C57.7358 31.0816 59.152 32.7261 60.5623 32.6841C62.9017 32.6148 60.9805 26.7366 59.0684 27.3523C57.1562 27.9681 60.8222 31.8532 64.5988 32.3379C68.3754 32.8226 67.3416 27.5675 64.5988 27.3597C61.856 27.152 63.7473 31.5787 68.6771 32.3379C73.607 33.0971 72.6868 28.6037 71.3512 27.706C70.0157 26.8083 70.431 31.9916 73.5263 32.8226C74.5063 33.0872 75.2861 32.5209 75.6686 31.8161C75.8897 31.4055 75.7761 29.3282 75.322 29.9687C74.3958 31.2819 74.2135 32.9215 73.7594 34.3707C72.7943 37.4372 71.3183 40.3726 70.4728 43.4663" stroke="black" stroke-width="5.5"/>
<path d="M34.5415 223.57C36.6569 222.749 231.736 223.57 231.736 223.57" stroke="black" stroke-width="5.5"/>
<path d="M65.8264 9.7124L65.6531 1" stroke="black" stroke-width="7.34"/>
<path d="M45.7511 17.8164L38.4639 11.5281" stroke="black" stroke-width="7.34"/>
<path d="M85.9761 18.207L93.4247 12.0493" stroke="black" stroke-width="7.34"/>
<path d="M197.642 211.685L197.896 211.705C197.759 211.724 197.597 211.744 197.457 211.771H197.242L177.011 211.685H174.726L140.736 211.541C140.608 211.541 140.48 211.541 140.351 211.541C140.32 211.546 140.289 211.546 140.258 211.541C140.258 211.541 140.258 211.541 140.238 211.541C140.024 211.543 139.81 211.531 139.598 211.504C141.416 211.334 143.139 210.742 144.567 209.796C144.791 209.64 145.021 209.491 145.23 209.323L145.254 209.303C145.303 209.271 145.349 209.235 145.391 209.197C147.119 207.783 148.153 205.89 148.296 203.883C148.296 203.786 148.296 203.68 148.296 203.583V203.43C148.274 199.567 144.983 196.246 140.411 195.472C140.404 195.467 140.394 195.467 140.387 195.472C140.166 195.425 139.912 195.395 139.679 195.365L140.178 195.338C140.259 195.333 140.341 195.333 140.423 195.338H140.817L169.533 195.462L174.818 195.482L179.509 195.501H181.693H181.959H182.052C187.068 195.92 190.89 199.41 190.902 203.583C190.901 203.967 190.866 204.349 190.797 204.728C190.098 208.613 186.149 211.532 181.406 211.668C181.302 211.668 181.197 211.668 181.108 211.668H198.168C197.92 211.675 197.759 211.675 197.642 211.685Z" fill="white"/>
<path d="M151.956 221.513C153.259 222.597 155.032 223.206 156.88 223.204H140.214C137.023 223.204 135.29 222.561 134.026 221.513C132.72 220.431 131.986 218.966 131.982 217.437C131.982 214.276 135.117 211.68 140.214 211.68H156.88C154.063 211.676 151.522 213.079 150.443 215.232C149.365 217.386 149.962 219.866 151.956 221.513Z" fill="#D7E8F0"/>
<path d="M207.048 203.7C207.048 203.853 207.048 204.017 207.024 204.17C207 204.43 206.967 204.679 206.919 204.929C206.896 205.063 206.863 205.199 206.827 205.332C206.758 205.579 206.677 205.852 206.585 206.101C206.48 206.377 206.355 206.647 206.211 206.91C206.164 207.011 206.11 207.11 206.05 207.207C206.05 207.236 206.026 207.256 206.002 207.283C205.934 207.409 205.853 207.531 205.772 207.649C205.644 207.842 205.503 208.033 205.354 208.216C205.178 208.438 204.98 208.639 204.783 208.841C204.587 209.043 204.377 209.235 204.156 209.418C203.919 209.617 203.668 209.803 203.403 209.976L203.104 210.177C202.764 210.389 202.407 210.582 202.034 210.753C201.861 210.83 201.676 210.909 201.491 210.985C201.473 210.996 201.452 211.002 201.431 211.003C201.222 211.089 201.013 211.159 200.803 211.225C200.594 211.292 200.385 211.359 200.167 211.416C199.946 211.465 199.725 211.522 199.504 211.562C198.961 211.664 198.41 211.731 197.855 211.762C197.738 211.762 197.624 211.762 197.508 211.762H197.32C197.448 211.735 197.577 211.725 197.705 211.705C197.72 211.701 197.736 211.701 197.75 211.705C197.691 211.704 197.633 211.697 197.577 211.685C197.615 211.68 197.655 211.68 197.693 211.685H198.204H181.108H181.407C183.509 211.592 185.52 210.941 187.14 209.828C187.385 209.663 187.618 209.487 187.839 209.301C188.024 209.152 188.199 208.995 188.362 208.829C188.487 208.714 188.603 208.593 188.709 208.465C188.778 208.396 188.837 208.329 188.894 208.263C189.005 208.14 189.105 208.011 189.193 207.877C189.329 207.72 189.45 207.555 189.554 207.382C189.666 207.217 189.766 207.047 189.853 206.873C189.898 206.796 189.934 206.71 189.994 206.626C190.074 206.452 190.143 206.279 190.212 206.106C190.307 205.859 190.4 205.597 190.469 205.34C190.51 205.2 190.541 205.059 190.561 204.917C190.575 204.882 190.583 204.847 190.585 204.81C190.599 204.783 190.607 204.754 190.609 204.724C190.609 204.627 190.642 204.541 190.654 204.444C190.654 204.425 190.654 204.407 190.654 204.387C190.698 204.119 190.718 203.849 190.714 203.579C190.718 203.454 190.71 203.329 190.69 203.205V203.119C190.69 202.996 190.678 202.874 190.654 202.753C190.575 202.086 190.391 201.43 190.107 200.802C189.95 200.425 189.75 200.061 189.51 199.716C189.29 199.368 189.034 199.037 188.745 198.727C188.67 198.636 188.588 198.549 188.5 198.467C188.464 198.437 188.431 198.398 188.383 198.361C188.228 198.192 188.057 198.034 187.872 197.888C187.735 197.775 187.574 197.658 187.433 197.535C187.293 197.411 187.06 197.265 186.862 197.149C186.665 197.033 186.537 196.949 186.363 196.852C186.106 196.697 185.834 196.559 185.551 196.439C185.287 196.312 185.011 196.202 184.726 196.11C184.396 195.993 184.059 195.891 183.716 195.804C183.599 195.768 183.478 195.742 183.355 195.727C183.035 195.652 182.71 195.594 182.381 195.554C182.216 195.524 182.055 195.514 181.882 195.497H181.858C181.835 195.502 181.812 195.502 181.789 195.497H181.962L191.066 195.534L197.29 195.564C197.785 195.566 198.278 195.601 198.766 195.67C200.031 195.833 201.244 196.205 202.33 196.766C202.471 196.832 202.596 196.909 202.725 196.976C203.117 197.19 203.486 197.431 203.827 197.698C203.945 197.783 204.058 197.873 204.165 197.968C205.05 198.71 205.759 199.583 206.256 200.542C206.325 200.664 206.384 200.789 206.432 200.918C206.493 201.039 206.543 201.164 206.582 201.291C206.882 202.07 207.039 202.882 207.048 203.7Z" fill="#3FBDF1"/>
<path fill-rule="evenodd" clip-rule="evenodd" d="M207.048 203.699C207.048 203.852 207.048 204.016 207.024 204.169C207 204.429 206.967 204.678 206.92 204.928C206.896 205.062 206.863 205.198 206.827 205.331C206.758 205.579 206.678 205.851 206.585 206.1C206.48 206.376 206.355 206.646 206.211 206.909C206.165 207.012 206.107 207.112 206.038 207.206C206.038 207.236 206.014 207.255 205.99 207.282C205.922 207.409 205.841 207.53 205.76 207.648C205.632 207.841 205.491 208.032 205.342 208.215C205.166 208.437 204.968 208.638 204.771 208.84C204.571 209.042 204.357 209.234 204.132 209.417C203.895 209.616 203.644 209.803 203.379 209.976L203.08 210.176C202.74 210.388 202.383 210.581 202.011 210.752C201.837 210.829 201.652 210.908 201.467 210.985C201.449 210.995 201.429 211.001 201.407 211.002C201.198 211.088 200.989 211.158 200.78 211.224C200.57 211.291 200.361 211.358 200.143 211.415C199.922 211.464 199.701 211.521 199.48 211.561L199.298 211.588C199.124 211.62 198.951 211.647 198.775 211.67C198.462 211.714 198.147 211.745 197.831 211.761C197.638 211.778 197.445 211.784 197.251 211.781C197.251 211.781 197.215 211.781 197.203 211.781L177.006 211.699L172.246 211.679L140.522 211.546C140.405 211.544 140.288 211.538 140.172 211.526C139.906 211.526 139.649 211.506 139.383 211.489C144.126 211.021 147.787 207.813 148.081 203.867C148.081 203.771 148.081 203.665 148.081 203.558V203.454C148.087 199.57 144.783 196.22 140.184 195.447C139.951 195.407 139.718 195.38 139.476 195.35C139.707 195.328 139.939 195.316 140.172 195.313C140.254 195.308 140.336 195.308 140.417 195.313H140.614L172.339 195.447L179.509 195.477H181.855H182.052L197.29 195.543C197.79 195.545 198.289 195.577 198.784 195.64C200.046 195.811 201.257 196.183 202.348 196.735C202.489 196.802 202.614 196.879 202.743 196.945C203.13 197.165 203.498 197.406 203.845 197.668C203.962 197.754 204.066 197.841 204.183 197.937C205.068 198.68 205.777 199.553 206.274 200.512L206.45 200.887C206.509 201.009 206.559 201.134 206.6 201.261C206.898 202.05 207.049 202.872 207.048 203.699V203.699Z" stroke="black" stroke-width="5.5" stroke-linecap="square" stroke-linejoin="round"/>
<path fill-rule="evenodd" clip-rule="evenodd" d="M190.699 203.554C190.701 203.824 190.685 204.094 190.651 204.362V204.419C190.627 204.545 190.606 204.666 190.583 204.785C190.58 204.821 190.572 204.857 190.559 204.891C190.539 205.034 190.508 205.175 190.466 205.314C190.397 205.562 190.305 205.831 190.209 206.081C190.14 206.254 190.072 206.427 189.991 206.6C189.931 206.687 189.895 206.773 189.851 206.847C189.763 207.022 189.663 207.192 189.552 207.357C189.447 207.529 189.326 207.695 189.19 207.852C189.102 207.986 189.002 208.115 188.891 208.237C188.835 208.304 188.775 208.371 188.706 208.44C188.6 208.567 188.484 208.689 188.36 208.804C188.196 208.969 188.022 209.127 187.837 209.276C187.614 209.458 187.381 209.63 187.138 209.793C185.521 210.911 183.511 211.569 181.407 211.667C181.302 211.667 181.198 211.667 181.108 211.667H140.567C140.196 211.667 139.814 211.65 139.428 211.62C139.678 211.595 139.927 211.56 140.172 211.514C140.192 211.52 140.213 211.52 140.232 211.514H140.253C142.137 211.189 143.865 210.415 145.225 209.288L145.249 209.268C146.978 207.822 147.989 205.891 148.081 203.858C148.081 203.761 148.081 203.655 148.081 203.549V203.539C148.043 199.438 144.334 195.999 139.417 195.502C139.673 195.474 139.927 195.465 140.184 195.455C140.25 195.445 140.316 195.445 140.382 195.455C140.388 195.45 140.399 195.45 140.405 195.455C140.455 195.45 140.505 195.45 140.555 195.455H180.884C181.165 195.455 181.431 195.455 181.7 195.484H181.792C181.815 195.489 181.839 195.489 181.861 195.484H181.909L182.384 195.541C182.713 195.581 183.038 195.639 183.358 195.714C183.475 195.734 183.603 195.761 183.72 195.791C184.063 195.878 184.4 195.981 184.729 196.098C185.007 196.194 185.288 196.31 185.554 196.427C185.835 196.55 186.106 196.688 186.367 196.84C186.54 196.936 186.704 197.03 186.866 197.136C187.027 197.243 187.248 197.384 187.436 197.522C187.625 197.661 187.735 197.769 187.876 197.876C188.052 198.031 188.225 198.185 188.387 198.348C188.434 198.385 188.467 198.425 188.503 198.454L188.748 198.714C189.028 199.03 189.283 199.36 189.513 199.703C189.739 200.055 189.938 200.417 190.111 200.789C190.385 201.419 190.568 202.074 190.657 202.74C190.657 202.866 190.681 202.987 190.693 203.106V203.192C190.699 203.304 190.699 203.43 190.699 203.554V203.554Z" stroke="black" stroke-width="5.5" stroke-linecap="square" stroke-linejoin="round"/>
<path fill-rule="evenodd" clip-rule="evenodd" d="M198.153 223.199H140.208C138.916 223.227 137.628 223.075 136.398 222.749C136.153 222.672 135.923 222.595 135.702 222.501C135.481 222.405 135.284 222.308 135.087 222.212C134.889 222.116 134.716 221.992 134.54 221.876C134.367 221.75 134.205 221.628 134.053 221.5C133.258 220.842 132.668 220.034 132.335 219.146C132.123 218.592 132.018 218.015 132.021 217.434C132.019 217.209 132.035 216.985 132.069 216.762C132.113 216.448 132.194 216.139 132.311 215.839C132.473 215.365 132.724 214.914 133.055 214.504C133.244 214.236 133.47 213.987 133.727 213.762C133.885 213.616 134.053 213.478 134.229 213.347C135.645 212.301 137.701 211.655 140.244 211.655H198.153C197.92 211.655 197.759 211.655 197.642 211.655C197.604 211.65 197.564 211.65 197.526 211.655C197.409 211.655 197.433 211.655 197.49 211.655C197.497 211.66 197.507 211.66 197.514 211.655C197.54 211.66 197.568 211.66 197.594 211.655H197.654C197.526 211.675 197.397 211.685 197.269 211.712H197.242C197.242 211.712 197.206 211.712 197.194 211.712C193.929 212.25 191.573 214.617 191.562 217.373C191.581 220.288 194.21 222.74 197.705 223.102C197.421 223.191 197.155 223.199 198.153 223.199V223.199Z" stroke="black" stroke-width="5.5" stroke-linecap="square" stroke-linejoin="round"/>
<path fill-rule="evenodd" clip-rule="evenodd" d="M197.687 223.172C197.421 223.192 197.155 223.199 196.886 223.199H156.871C155.027 223.199 153.259 222.59 151.959 221.508C151.163 220.85 150.574 220.042 150.241 219.153C150.034 218.599 149.933 218.022 149.942 217.442C149.948 214.263 153.057 211.686 156.897 211.675H196.886C197.083 211.675 197.293 211.675 197.484 211.695C197.518 211.699 197.554 211.699 197.588 211.695H197.648C197.52 211.714 197.391 211.724 197.263 211.751H197.242C197.242 211.751 197.206 211.751 197.194 211.751C193.929 212.289 191.573 214.657 191.562 217.412C191.581 220.328 194.21 222.78 197.705 223.143L197.687 223.172Z" stroke="black" stroke-width="5.5" stroke-linecap="square" stroke-linejoin="round"/>
<path fill-rule="evenodd" clip-rule="evenodd" d="M149.915 217.442C149.915 220.622 153.029 223.199 156.871 223.199H140.208C137.026 223.199 135.284 222.556 134.017 221.508C132.713 220.43 131.982 218.967 131.985 217.442C131.985 214.272 135.111 211.675 140.208 211.675H156.871C153.03 211.686 149.922 214.263 149.915 217.442V217.442Z" stroke="black" stroke-width="5.5" stroke-linecap="square" stroke-linejoin="round"/>
<path fill-rule="evenodd" clip-rule="evenodd" d="M198.153 223.199H196.886C197.155 223.199 197.421 223.199 197.687 223.172C197.421 223.191 197.155 223.199 198.153 223.199V223.199Z" stroke="black" stroke-width="5.5" stroke-linecap="square" stroke-linejoin="round"/>
<path fill-rule="evenodd" clip-rule="evenodd" d="M197.594 211.7C197.364 211.7 197.119 211.67 196.886 211.67H198.153C197.269 211.675 197.373 211.7 197.594 211.7Z" stroke="black" stroke-width="5.5" stroke-linecap="square" stroke-linejoin="round"/>
<path opacity="0.54" d="M23.9495 201.506L3.20822 157.526C2.68752 155.802 3.15548 153.975 4.47679 152.575C5.79809 151.174 7.82542 150.355 9.9726 150.354H92.3701C96.1777 150.354 99.4896 152.513 100.38 155.577L123.088 199.553C123.587 201.272 123.106 203.086 121.783 204.474C120.46 205.863 118.442 206.673 116.305 206.672H31.9359C28.1566 206.672 24.8631 204.542 23.9495 201.506Z" fill="white"/>
<path d="M23.9495 201.506L3.20822 157.526C2.68752 155.802 3.15548 153.975 4.47679 152.575C5.79809 151.174 7.82542 150.355 9.9726 150.354H92.3701C96.1777 150.354 99.4896 152.513 100.38 155.577L123.088 199.553C123.587 201.272 123.106 203.086 121.783 204.474C120.46 205.863 118.442 206.673 116.305 206.672H31.9359C28.1566 206.672 24.8631 204.542 23.9495 201.506Z" fill="#3FBDF1"/>
<path fill-rule="evenodd" clip-rule="evenodd" d="M23.9495 201.506L3.20822 157.526C2.68752 155.802 3.15548 153.975 4.47679 152.575C5.79809 151.174 7.82542 150.355 9.9726 150.354H92.3701C96.1777 150.354 99.4896 152.513 100.38 155.577L123.088 199.553C123.587 201.272 123.106 203.086 121.783 204.474C120.46 205.863 118.442 206.673 116.305 206.672H31.9359C28.1566 206.672 24.8631 204.542 23.9495 201.506Z" stroke="black" stroke-width="5.5" stroke-linecap="square" stroke-linejoin="round"/>
<path d="M26.9792 199.725L7.85729 159.151C7.37631 157.561 7.80665 155.877 9.02394 154.584C10.2412 153.292 12.1098 152.535 14.0898 152.533H90.0935C93.6061 152.534 96.6608 154.526 97.4823 157.353L118.43 197.91C118.89 199.497 118.447 201.17 117.227 202.451C116.007 203.733 114.144 204.481 112.173 204.481H34.3531C30.8688 204.482 27.8297 202.522 26.9792 199.725Z" fill="#3FBDF1"/>
<path d="M84.6017 159.994C83.5948 158.74 81.9485 158.184 80.9207 158.757C79.8929 159.331 79.878 160.798 80.8849 162.051C81.0435 162.242 81.2214 162.422 81.4167 162.588L73.9472 175.638C72.7521 174.98 71.4464 174.817 70.5082 175.337C69.895 175.706 69.5109 176.281 69.4595 176.907L64.3563 175.48L59.8956 174.244L58.4375 173.848C58.2548 173.394 58.0006 172.963 57.6816 172.564C56.2654 170.804 53.9528 170.022 52.5097 170.816C51.0666 171.61 51.0517 173.64 52.429 175.389L43.9407 184.991C42.0883 183.733 39.9042 183.344 38.3924 184.175C36.3367 185.31 36.3009 188.266 38.3236 190.778C38.4043 190.877 38.4969 190.961 38.5806 191.055L32.9127 197.465L32.8619 197.527C32.4269 198.013 32.3509 198.657 32.6645 199.203C32.9781 199.749 33.63 200.107 34.3595 200.134C35.0891 200.161 35.7771 199.853 36.1485 199.332L41.1889 193.053C42.7784 193.818 44.4755 193.963 45.7095 193.281C47.6755 192.198 47.7681 189.458 46.0083 187.024L54.15 176.853C55.3451 177.528 56.6777 177.701 57.6278 177.179C58.1591 176.869 58.521 176.398 58.6347 175.868L59.2323 176.009L63.7707 177.036L69.579 178.331C69.7556 178.907 70.0485 179.454 70.4455 179.949C71.8587 181.707 74.1743 182.491 75.6174 181.697C77.0605 180.903 77.0784 178.833 75.6652 177.075C75.4565 176.82 75.2227 176.579 74.966 176.355L82.074 163.053C82.9315 163.548 83.8667 163.659 84.5569 163.285C85.5996 162.734 85.6145 161.25 84.6017 159.994Z" fill="white"/>
<path d="M30.5223 160.716H19.5123C18.4773 160.719 17.5384 160.214 17.122 159.429C17.0592 159.311 17.0257 159.184 17.0234 159.055C17.03 158.538 17.5372 158.121 18.1618 158.12H29.871C29.3272 158.89 29.626 159.959 30.5223 160.716Z" fill="#D7E8F0"/>
<path d="M37.6511 159.78C37.6478 160.297 37.1423 160.714 36.5187 160.716H30.5222C29.6079 159.958 29.3271 158.889 29.8798 158.12H35.1682C36.2011 158.115 37.1394 158.617 37.5585 159.399C37.6202 159.52 37.6517 159.649 37.6511 159.78Z" fill="#3FBDF1"/>
<path d="M34.8967 160.714C34.8645 160.763 34.8286 160.811 34.7891 160.857C34.0004 161.745 32.2973 161.829 30.9737 161.028C30.8152 160.933 30.6664 160.828 30.5285 160.714C29.6143 159.957 29.3334 158.889 29.8862 158.12C29.9161 158.069 29.9522 158.021 29.9937 157.976C30.7735 157.083 32.4766 157.007 33.8002 157.801C33.961 157.896 34.1119 158.003 34.2513 158.12C35.1596 158.879 35.4405 159.937 34.8967 160.714Z" fill="white"/>
<path d="M40.421 165.502C40.416 166.02 39.9078 166.438 39.2826 166.438H27.7228C28.2815 165.661 28.0037 164.602 27.0864 163.842H37.9441C38.9791 163.838 39.9179 164.344 40.3343 165.129C40.393 165.247 40.4225 165.374 40.421 165.502Z" fill="#3FBDF1"/>
<path d="M27.723 166.445H22.2852C21.2524 166.45 20.3141 165.948 19.895 165.166C19.8324 165.046 19.7988 164.918 19.7964 164.787C19.7948 164.539 19.9132 164.3 20.1253 164.124C20.3373 163.948 20.6255 163.849 20.9258 163.85H27.0866C28.0039 164.602 28.2818 165.661 27.723 166.445Z" fill="#D7E8F0"/>
<path d="M27.7231 166.444C27.6983 166.495 27.6652 166.543 27.6245 166.587C26.8447 167.482 25.1387 167.559 23.8151 166.765C23.6514 166.668 23.4966 166.56 23.352 166.444C22.4557 165.687 22.1569 164.626 22.7096 163.85C22.739 163.8 22.7751 163.752 22.8172 163.709C23.603 162.819 25.306 162.737 26.6326 163.536C26.7894 163.631 26.9372 163.736 27.0748 163.85C28.004 164.602 28.2819 165.66 27.7231 166.444Z" fill="white"/>
<path d="M31.5746 172.134H24.6548C23.6219 172.136 22.6846 171.633 22.2646 170.852C22.2018 170.734 22.1683 170.607 22.166 170.478C22.1677 169.958 22.6764 169.537 23.3044 169.535H30.9173C30.3854 170.3 30.6663 171.362 31.5746 172.134Z" fill="#3FBDF1"/>
<path d="M42.7907 171.19C42.7874 171.706 42.2809 172.122 41.6584 172.121H31.5745C30.6782 171.361 30.3794 170.299 30.9292 169.522H40.3139C41.3441 169.522 42.2768 170.027 42.6892 170.809C42.754 170.929 42.7886 171.059 42.7907 171.19Z" fill="#D7E8F0"/>
<path d="M35.9397 172.132C35.9104 172.183 35.8743 172.23 35.8321 172.273C35.0523 173.169 33.3493 173.245 32.0257 172.451C31.8669 172.354 31.7161 172.247 31.5745 172.132C30.6782 171.373 30.3794 170.312 30.9292 169.535C30.9607 169.486 30.9967 169.439 31.0367 169.394C31.8255 168.506 33.5286 168.427 34.8522 169.221C35.0092 169.317 35.158 169.422 35.2973 169.535C36.1996 170.282 36.4984 171.348 35.9397 172.132Z" fill="white"/>
<path d="M76.3169 198.925H69.3942C68.3613 198.928 67.424 198.425 67.0039 197.644C66.9388 197.526 66.9042 197.399 66.9023 197.27C66.904 196.75 67.4127 196.329 68.0407 196.327H75.6566C75.1278 197.109 75.4086 198.166 76.3169 198.925Z" fill="#3FBDF1"/>
<path d="M103.79 197.995C103.789 198.242 103.669 198.479 103.458 198.654C103.246 198.828 102.959 198.926 102.66 198.925H76.3167C75.4204 198.166 75.1216 197.104 75.6714 196.327H101.313C102.343 196.327 103.276 196.832 103.688 197.614C103.753 197.734 103.787 197.863 103.79 197.995Z" fill="#D7E8F0"/>
<path d="M80.6819 198.924C80.6526 198.974 80.6165 199.022 80.5744 199.065C79.7945 199.96 78.0915 200.037 76.7679 199.243C76.6084 199.146 76.4577 199.039 76.3167 198.924C75.4204 198.165 75.1216 197.104 75.6714 196.328C75.7029 196.278 75.7388 196.231 75.7789 196.187C76.5677 195.299 78.2708 195.22 79.5944 196.013C79.7514 196.109 79.9002 196.214 80.0395 196.328C80.9538 197.087 81.2347 198.153 80.6819 198.924Z" fill="white"/>
</svg>
