<svg width="314" height="226" viewBox="0 0 314 226" fill="none" xmlns="http://www.w3.org/2000/svg">
<path d="M57.2909 61.0375C56.3225 62.3772 54.2958 62.944 52.5528 63.2331C50.3255 63.611 48.0222 63.7112 45.7673 63.8772L44.4565 64.1434C43.9555 64.2713 43.5366 64.5591 43.2926 64.9432C43.0486 65.3273 42.9995 65.776 43.1561 66.1902C43.9671 68.5002 45.0829 70.7292 46.4832 72.8372L44.4081 74.5547C43.8201 73.8963 43.7925 72.7427 43.0039 72.8543C42.2465 72.2274 41.3473 71.9211 40.417 72.7599C38.5978 74.4059 38.8918 77.8267 41.5652 78.7713L40.9669 81.236C40.5414 83.0129 38.6594 84.2939 36.4709 84.2961L36.9309 81.3792C33.8182 82.6816 30.2871 79.8648 30.5327 77.5433C30.6918 75.9517 30.256 74.8524 28.8346 73.6988C28.7412 73.6215 29.3119 73.3352 29.2254 73.258C28.8242 72.2532 28.7689 71.0795 29.1666 70.4154C29.8583 69.2303 31.8953 68.5375 30.9581 67.2436C30.5467 66.6798 30.2466 66.0652 30.0693 65.423C29.6885 63.7004 30.227 61.9258 31.546 60.5566C32.9294 59.1825 35.1774 59.5518 37.0139 59.0652C39.2515 58.4927 40.2856 56.5089 42.627 55.8963C43.7925 55.59 44.8715 55.7302 46.037 55.9507C47.0227 56.1396 47.998 56.3514 48.9663 56.6033C49.9347 56.8552 50.7855 57.0642 51.7331 56.8295C52.9851 56.5432 53.95 55.5757 55.3161 55.5671C55.9977 55.5541 56.665 55.7304 57.2113 56.068C58.2212 57.5709 58.2281 59.7522 57.2909 61.0375Z" fill="#3FBDF1"/>
<path d="M14.4889 99.7969C14.4889 99.7969 -23.1634 65.423 32.2862 48.2704C35.5015 47.2945 38.8527 46.6578 42.2604 46.3754C51.1106 45.5968 70.6751 42.8287 72.9301 33.4795" stroke="#CCDDE2" stroke-width="4"/>
<path d="M172.548 51.6768V51.6682" stroke="#CCDDE2" stroke-width="4"/>
<path d="M73.7535 113.569V113.56" stroke="black" stroke-width="4"/>
<path d="M44.3149 74.3259C43.9464 73.7986 43.5079 73.3071 43.0076 72.8603C42.2502 72.2334 41.351 71.9271 40.4207 72.7658C38.6016 74.4118 38.8955 77.8325 41.5689 78.7771L40.9706 81.2417C40.5451 83.0185 38.6631 84.2995 36.4746 84.3018" stroke="black" stroke-width="4" stroke-linecap="round" stroke-linejoin="round"/>
<path d="M34.8008 95.2085C34.953 94.2524 35.3299 91.7419 35.693 89.3488C36.0389 87.1303 36.3467 84.9948 36.4677 84.2906L36.9312 81.3794" stroke="black" stroke-width="4" stroke-linecap="round" stroke-linejoin="round"/>
<path d="M56.1535 66.5225C56.1535 66.5225 51.7371 66.7029 50.8828 69.7307" stroke="black" stroke-width="4"/>
<path d="M57.7584 74.5176C58.9619 74.4918 60.5252 74.3458 61.0923 73.3354L58.0489 70.5558C57.3065 69.8747 56.8672 69.0042 56.8039 68.0884C56.6828 66.5512 56.9007 64.1123 55.123 62.4893" stroke="black" stroke-width="4"/>
<ellipse rx="1.22323" ry="1.05742" transform="matrix(0.73749 -0.675358 0.800699 0.599066 54.3084 70.0359)" fill="black"/>
<path d="M54.8559 92.7749L52.563 83.5747" stroke="black" stroke-width="4.11"/>
<path d="M112.982 134.182L98.2044 144.184C115.984 166.626 102.527 170.746 102.527 170.746C99.9172 171.159 97.2813 171.452 94.6318 171.624C81.7801 172.392 68.5965 169.646 58.0032 163.498C36.5607 151.045 17.885 126.124 27.8454 104.426C28.6835 102.59 29.7073 100.817 30.9061 99.1242C31.9391 97.6527 33.2543 96.3301 34.8003 95.2082C40.3274 91.2034 48.1775 90.2522 54.8594 92.7778C56.1118 93.2509 57.2962 93.8385 58.3905 94.5297C63.9898 98.0765 69.0807 103.117 73.4695 108.407C77.3663 113.191 80.8729 118.185 83.9659 123.356C84.8201 124.767 85.5948 126.101 86.2796 127.323C92.4876 125.245 97.6925 121.716 102.534 117.903C96.6792 126.948 112.982 134.182 112.982 134.182Z" fill="#353642"/>
<path d="M102.642 141.499C102.358 141.679 102.064 141.868 101.771 142.048" stroke="black" stroke-width="4.11"/>
<path d="M58.9512 103.475C62.8708 109.687 66.7904 115.91 70.71 122.145C73.667 126.851 78.6644 129.757 85.7024 127.527C93.3595 125.099 99.5363 120.459 105.25 115.73C110.963 111.001 116.753 106.478 125.001 105.259C135.663 103.681 145.752 108.49 153.015 114.568C154.165 115.522 154.372 117.005 153.516 118.152C152.976 118.873 152.084 119.363 151.072 119.496C150.059 119.628 149.028 119.389 148.245 118.842C144.804 116.411 139.205 112.896 135.311 112.85" stroke="black" stroke-width="4.11"/>
<path d="M124.686 121.189C125.883 121.85 127.543 122.583 128.926 122.583" stroke="black" stroke-width="4.11"/>
<path d="M140.021 114.055C142.573 115.1 143.504 118.157 141.702 119.984C139.417 122.33 136.554 124.247 133.305 125.606C129.749 127.074 127.467 126.178 123.967 124.386" stroke="black" stroke-width="4.11"/>
<path d="M134.114 116.795C134.114 116.795 139.171 117.831 139.036 121.893C139.027 122.066 138.989 122.238 138.925 122.403" stroke="black" stroke-width="4.11"/>
<path d="M130.542 119.354C130.542 119.354 137.324 122.981 134.097 125.262" stroke="black" stroke-width="4.11"/>
<path d="M261.551 133.57C253.562 151.744 231.196 152.256 228.637 152.256C229.709 150.387 230 147.104 227.651 141.35C230.874 137.455 230.809 132.307 227.489 128.468C227.52 128.446 227.537 128.414 227.565 128.391C228.683 128.335 229.793 128.196 230.882 127.976C234.741 127.215 242.35 125.543 248.388 123.19C252.483 121.59 257.259 124.155 256.91 127.896C256.91 127.945 256.91 127.99 256.889 128.045C258.512 128.044 260.033 128.699 260.962 129.8C261.891 130.901 262.111 132.309 261.551 133.57Z" fill="#3FBDF1"/>
<path d="M159.032 176.196C156.342 180.018 152.153 183.273 148.107 186.112C133.861 196.091 115.251 201.158 96.5757 201.355C77.8378 201.158 59.1586 196.074 44.8475 186.184C-0.372 154.93 7.80036 118.029 15.115 100.942C15.3727 100.351 15.7214 99.7904 16.1526 99.2734C17.3094 97.8726 19.1341 96.9477 21.1673 96.7314C25.0062 97.1694 28.4924 99.8058 27.8768 103.888C27.8768 104.045 27.8007 104.263 27.7834 104.42C17.8299 126.119 36.5126 151.04 57.9412 163.492C67.663 169.14 79.567 171.917 91.395 171.736H91.5298C92.5443 171.719 93.5577 171.68 94.5698 171.619C101.214 171.218 107.671 169.902 114.065 168.307C121.57 166.449 128.992 164.196 136.49 162.619C139.125 162.064 141.768 161.529 144.424 161.028C145.956 160.767 147.524 160.678 149.086 160.761C158.296 161.277 164.766 168.055 159.032 176.196Z" fill="#D7E8F0"/>
<path d="M161.307 176.197C158.617 180.018 154.425 183.273 150.379 186.113C135.566 196.498 116.022 201.57 96.5649 201.356C77.827 201.158 59.1478 196.074 44.8367 186.184C-0.372393 154.93 7.79996 118.029 15.1146 100.942C15.3723 100.351 15.721 99.7904 16.1522 99.2734C17.309 97.8726 19.1337 96.9477 21.1669 96.7314C25.0058 97.1694 28.492 99.8059 27.8764 103.888C27.8764 104.045 27.8003 104.263 27.783 104.42C17.8295 126.119 36.5121 151.04 57.9408 163.492C67.6625 169.14 79.5666 171.917 91.3945 171.737H91.5294C93.3117 171.76 95.0836 171.72 96.8451 171.619C103.489 171.219 109.942 169.902 116.34 168.307C123.845 166.45 131.267 164.197 138.765 162.619C141.397 162.064 144.043 161.529 146.695 161.028C147.484 160.894 148.282 160.805 149.085 160.762C159.44 160.186 167.505 167.397 161.307 176.197Z" fill="#D7E8F0"/>
<path d="M99.6882 201.304L104.24 206.634C104.24 206.634 131.779 207.521 146.851 217.993C149.639 219.931 147.972 223.695 144.334 223.695C143.421 223.697 142.538 223.431 141.84 222.945C138.281 220.472 124.686 212.697 93.9333 212.462C63.9692 212.23 52.4767 219.905 49.2983 222.701C48.5656 223.34 47.5469 223.699 46.4832 223.695H45.8918C42.1566 223.695 40.5761 219.79 43.5262 217.895C56.1081 209.797 84.3119 207.215 84.3119 207.215L89.126 201.204" fill="#353642"/>
<path d="M221.568 171.748C221.568 171.748 230.003 178.38 227.371 198.942C227.18 200.41 226.563 201.818 225.573 203.047L224.657 204.192C223.154 206.055 220.887 207.405 218.276 207.993C212.766 209.239 202.771 212.124 196.598 217.592C193.99 219.908 195.931 223.68 199.756 223.68C201.204 223.684 202.559 223.086 203.363 222.089C205.877 218.957 213.489 212.307 231.85 212.448C252.559 212.605 260.901 219.421 263.575 222.358C264.324 223.188 265.501 223.678 266.753 223.68C268.335 223.678 269.764 222.9 270.394 221.699C271.023 220.498 270.733 219.102 269.655 218.144C261.579 210.882 251.702 208.174 246.251 207.169C243.513 206.681 241.094 205.362 239.469 203.473C238.225 202.016 237.518 200.292 237.432 198.51C237.128 192.135 236.969 176.66 242.188 171.753" fill="#353642"/>
<path d="M114.135 168.316C128.968 162.356 145.067 158.445 160.897 154.764C176.826 151.06 192.912 147.828 209.045 144.791C215.492 143.58 221.997 142.501 228.413 141.135" stroke="black" stroke-width="4"/>
<path d="M128.051 122.5H128.062H128.069" stroke="black" stroke-width="4"/>
<path d="M126.388 121.724C125.458 122.486 122.137 126.553 121.304 127.283C116.725 131.345 111.861 135.18 106.737 138.768C105.447 139.655 104.081 140.571 102.642 141.499C102.359 141.679 102.065 141.868 101.771 142.049C92.0177 148.174 79.2905 154.071 67.5318 150.293C67.2205 150.198 66.9162 150.09 66.6153 149.978C48.5794 143.294 35.9733 126.553 34.8735 110.394C34.8354 109.867 34.8147 109.343 34.8077 108.825C34.7109 104.408 35.4994 99.9913 40.618 97.6611" stroke="black" stroke-width="4"/>
<path d="M27.8735 104.362L27.9461 103.893C29.0943 96.2728 16.0213 93.7022 12.9191 100.942C5.60787 118.025 -2.56794 154.918 42.6619 186.177C71.8548 206.361 119.118 206.502 148.2 186.112C152.247 183.275 156.435 180.014 159.129 176.193C165.946 166.529 155.536 158.78 143.794 161.159" stroke="black" stroke-width="4"/>
<path d="M99.6887 201.304L104.24 206.634C104.24 206.634 131.78 207.521 146.852 217.993C149.639 219.931 147.972 223.695 144.334 223.695C143.422 223.697 142.538 223.431 141.84 222.945C138.282 220.472 124.686 212.697 93.9338 212.462C63.9697 212.23 52.4772 219.905 49.2988 222.701C48.5661 223.34 47.5474 223.699 46.4836 223.695H45.8922C42.1571 223.695 40.5766 219.79 43.5267 217.895C56.1086 209.797 84.3124 207.215 84.3124 207.215L89.1265 201.204" stroke="black" stroke-width="4"/>
<path d="M84.312 122.898C95.8564 120.322 100.612 106.842 102.528 97.7793" stroke="black" stroke-width="4"/>
<path d="M73.4595 108.416C79.9807 107.71 85.5901 104.249 88.272 99.2788C88.8316 98.293 88.7931 97.1459 88.1683 96.1872C86.9094 94.2578 85.0315 92.0222 85.4776 89.7092C85.7993 88.0775 87.4213 86.9296 89.2819 86.5603C90.2251 86.3558 91.2181 86.3697 92.1524 86.6004C93.2863 86.8664 94.2158 87.5401 94.684 88.4353C95.1371 89.3141 94.5976 90.1844 93.7641 90.7569C92.9306 91.3294 91.9553 91.5326 90.9385 91.7617C90.8071 91.7931 90.4474 91.8561 90.0497 91.9191" stroke="black" stroke-width="4"/>
<path d="M228.399 141.13C228.399 141.13 251.156 137.185 255.43 131.503C256.231 130.467 256.731 129.291 256.89 128.068" stroke="black" stroke-width="4"/>
<path d="M116.421 131.426C156.113 127.936 200.914 128.451 200.914 128.451H226.057C227.682 128.453 229.302 128.296 230.882 127.982C234.742 127.22 242.35 125.551 248.389 123.196C252.484 121.595 257.26 124.16 256.91 127.905C256.91 127.95 256.91 127.999 256.89 128.053C258.509 128.054 260.026 128.708 260.954 129.806C261.883 130.904 262.106 132.307 261.552 133.567C253.072 152.858 228.399 152.254 228.399 152.254C225.245 152.331 222.098 152.434 218.94 152.569C191.123 153.688 163.553 156.92 136.563 162.625C129.065 164.202 121.643 166.452 114.138 168.313C107.74 169.913 101.276 171.221 94.6323 171.622C81.7806 172.392 68.597 169.644 58.0037 163.495C34.8008 150.018 14.8316 121.919 30.9066 99.1098C36.5819 91.0602 49.4336 88.856 58.391 94.5296C71.0248 102.531 81.1166 118.117 86.2939 127.312" stroke="black" stroke-width="4"/>
<path d="M261.026 171.748H205.788" stroke="black" stroke-width="4"/>
<path d="M194.637 162.513C194.654 157.419 199.639 153.292 205.794 153.276H261.04C267.196 153.29 272.183 157.417 272.2 162.513" stroke="black" stroke-width="4"/>
<path d="M273.286 165.788C273.292 167.37 272.534 168.889 271.182 170.008C269.83 171.127 267.994 171.753 266.082 171.748H200.717C197.313 171.481 194.794 169.008 195.052 166.186C195.311 163.364 198.251 161.233 201.665 161.394H267.03C269.385 161.391 271.592 162.344 272.937 163.944C273.168 164.54 273.286 165.162 273.286 165.788Z" fill="#D7E8F0"/>
<path fill-rule="evenodd" clip-rule="evenodd" d="M273.285 165.788C273.291 167.371 272.534 168.89 271.181 170.009C269.829 171.128 267.993 171.754 266.081 171.748H200.716C198.106 171.796 195.668 170.67 194.346 168.806C193.024 166.942 193.024 164.632 194.346 162.768C195.668 160.904 198.106 159.778 200.716 159.826H266.081C269.203 159.824 271.971 161.488 272.936 163.945C273.167 164.541 273.285 165.163 273.285 165.788V165.788Z" stroke="black" stroke-width="4"/>
<path d="M102.403 97.5675L102.271 98.4864C102.147 99.3494 101.264 99.9996 100.213 100.001H93.0303C91.9803 99.9996 91.0967 99.3494 90.9725 98.4864L90.0456 91.9024C90.4433 91.8394 90.803 91.7764 90.9345 91.7449C91.9512 91.5159 92.9369 91.3213 93.76 90.7402C94.5831 90.1591 95.1434 89.3089 94.68 88.4186C94.2117 87.5234 93.2822 86.8497 92.1484 86.5837C91.214 86.3529 90.2211 86.3391 89.2778 86.5436L89.06 84.9749C88.9951 84.4901 89.1824 84.0053 89.575 83.6416C89.9676 83.2779 90.5285 83.0695 91.1177 83.0684H102.14C102.729 83.0703 103.288 83.279 103.68 83.6427C104.072 84.0063 104.259 84.4906 104.194 84.9749L103.938 86.764" stroke="black" stroke-width="4"/>
<path d="M103.361 90.8546L103.35 90.9174" stroke="black" stroke-width="4"/>
<path d="M102.821 94.6362V94.6104" stroke="black" stroke-width="4"/>
<path d="M102.925 94.6363C102.894 94.632 102.862 94.632 102.831 94.6363C102.788 94.6322 102.744 94.6322 102.7 94.6363C101.771 94.6389 100.999 95.2304 100.924 95.997C100.849 96.7637 101.496 97.4501 102.413 97.5762C102.604 97.6077 102.8 97.6077 102.991 97.5762C103.854 97.4621 104.642 97.1016 105.218 96.5571C105.985 95.5122 106.518 94.3611 106.791 93.1592C106.796 93.1471 106.796 93.1341 106.791 93.122C107.002 92.2364 107.083 91.3328 107.03 90.4311C107.03 90.0447 106.971 89.6611 106.916 89.2861C106.699 87.998 105.49 86.9787 103.938 86.7756C103.9 86.7756 103.855 86.7756 103.817 86.7584C102.365 86.6096 100.327 87.0647 99.9505 88.4216C99.6047 89.6468 101.209 90.6974 102.527 90.7918C102.527 90.7918 102.873 90.829 103.361 90.8548C104.336 90.9092 105.958 90.9006 107.03 90.4311C107.188 90.3635 107.336 90.2819 107.473 90.1878" stroke="black" stroke-width="4"/>
<path d="M104.44 90.9204H104.201H102.358H101.545C100.404 90.9236 99.4646 91.6635 99.4041 92.6065C99.3486 93.5207 100.137 94.3217 101.23 94.4614C103.617 94.7791 106.342 94.845 106.809 93.0759" stroke="black" stroke-width="4"/>
<path d="M221.568 171.748C221.568 171.748 230.003 178.381 227.371 198.942C227.179 200.411 226.562 201.819 225.573 203.047L224.656 204.192C223.153 206.055 220.887 207.406 218.275 207.994C212.766 209.239 202.771 212.124 196.598 217.592C193.99 219.908 195.93 223.681 199.755 223.681C201.204 223.684 202.558 223.086 203.362 222.089C205.877 218.957 213.489 212.308 231.85 212.448C252.559 212.605 260.901 219.421 263.574 222.358C264.323 223.188 265.501 223.678 266.753 223.681C268.334 223.678 269.764 222.9 270.393 221.699C271.023 220.498 270.733 219.102 269.654 218.144C261.579 210.882 251.701 208.174 246.251 207.169C243.512 206.681 241.093 205.363 239.469 203.474C238.225 202.017 237.518 200.293 237.432 198.51C237.127 192.135 236.968 176.66 242.187 171.754" stroke="black" stroke-width="4"/>
<path fill-rule="evenodd" clip-rule="evenodd" d="M204.033 123.688V124.152C204.033 127.326 200.942 127.873 198.272 127.927L146.599 128.924C144.333 128.969 142.428 127.332 142.379 125.282V125.197C142.379 123.193 144.164 121.518 146.398 121.475C146.398 121.475 175.307 120.8 197.691 120.29C198.119 121.412 199.157 122.277 200.457 122.955C201.535 123.488 202.78 123.743 204.033 123.688V123.688Z" stroke="black" stroke-width="4"/>
<path fill-rule="evenodd" clip-rule="evenodd" d="M231.5 78.431C231.503 78.9532 231.358 79.4688 231.078 79.9367L207.969 119.148C207.42 120.07 206.407 120.743 205.202 120.989C204.248 121.191 203.238 121.106 202.352 120.748C200.904 120.158 199.99 118.936 199.997 117.599C199.999 117.439 200.013 117.278 200.039 117.119C200.1 116.764 200.229 116.419 200.419 116.097L223.525 76.8795C224.384 75.4304 226.338 74.6633 228.238 75.029C230.137 75.3948 231.481 76.7967 231.48 78.411L231.5 78.431Z" stroke="black" stroke-width="4"/>
<path d="M44.4114 74.5608C44.3838 74.4806 44.3457 74.4034 44.3146 74.3261C44.2835 74.2488 44.2385 74.1601 44.2108 74.0742" stroke="black" stroke-width="4" stroke-linecap="round" stroke-linejoin="round"/>
<path d="M44.4111 74.5642L45.1201 73.9741L46.4758 72.8369" stroke="black" stroke-width="4" stroke-linecap="round" stroke-linejoin="round"/>
<path d="M52.3896 76.1152C52.3896 76.1152 53.2992 78.3634 56.775 78.5151" stroke="black" stroke-width="4"/>
<path d="M36.9305 81.3792C33.8179 82.6816 30.2868 79.8649 30.5324 77.5433C30.6915 75.9517 30.2557 74.8525 28.8343 73.6989C28.7409 73.6216 28.6544 73.5414 28.5714 73.4642C27.4642 72.4669 27.2038 71.0116 27.9143 69.7915C28.561 68.5463 29.9548 67.8163 28.9864 66.4738C28.5616 65.8931 28.251 65.2602 28.0665 64.5988C27.6757 62.8241 28.2319 60.9962 29.5917 59.5864C31.0166 58.1551 33.3372 58.5502 35.2428 58.0492C37.5358 57.4452 38.6079 55.4042 41.015 54.7773C42.2185 54.4653 43.3356 54.6056 44.5392 54.8317C45.5525 55.0292 46.5693 55.2496 47.5549 55.5073C48.5406 55.7649 49.4398 55.9853 50.4255 55.742C51.7155 55.43 52.7081 54.4481 54.1122 54.4395C55.5163 54.4309 56.5954 55.1151 57.2248 56.0712C58.2209 57.5712 58.2278 59.7525 57.2905 61.0463C56.3222 62.386 54.2955 62.9528 52.5524 63.2419C50.3252 63.6198 48.0218 63.72 45.7669 63.886L44.4562 64.1522C43.4179 64.4187 42.8362 65.3304 43.1558 66.1904C43.9668 68.5003 45.0825 70.7294 46.4828 72.8373" stroke="black" stroke-width="4"/>
<path d="M46.4756 81.7087C46.4756 81.7087 53.3372 85.8679 57.2487 83.575C61.1603 81.2822 58.9503 74.561 58.9503 74.561" stroke="black" stroke-width="4" stroke-linecap="round" stroke-linejoin="round"/>
<path d="M94.9603 80.197C94.9603 80.197 92.0448 78.5654 93.8986 76.8995C95.7523 75.2335 93.2829 73.0352 93.2829 73.0352" stroke="black" stroke-width="4"/>
<path d="M97.6509 80.4802C97.6509 80.4802 99.5807 79.401 98.3426 78.2961C97.1044 77.1911 98.7541 75.7197 98.7541 75.7197" stroke="black" stroke-width="4"/>
<ellipse cx="110.949" cy="33.4655" rx="38.0154" ry="31.4655" stroke="#CCDDE2" stroke-width="4"/>
<ellipse cx="110.949" cy="33.4653" rx="20.8788" ry="17.2812" stroke="#CCDDE2" stroke-width="4"/>
<ellipse cx="110.949" cy="33.4656" rx="3.57953" ry="2.96265" stroke="#CCDDE2" stroke-width="4"/>
<path d="M118.361 23.5723L112.834 30.9465" stroke="#CCDDE2" stroke-width="4"/>
<path d="M110.949 16.1841V19.259" stroke="#CCDDE2" stroke-width="4"/>
<path d="M131.828 33.4653H128.307" stroke="#CCDDE2" stroke-width="4"/>
<path d="M110.949 50.7515V47.7612" stroke="#CCDDE2" stroke-width="4"/>
<path d="M90.0669 33.4653H93.2418" stroke="#CCDDE2" stroke-width="4"/>
<ellipse cx="147.384" cy="74.0741" rx="14.1451" ry="11.7079" fill="#3FBDF1"/>
<path d="M152.035 70.1636C151.836 69.783 151.568 69.4298 151.24 69.1159C150.08 67.9806 148.082 67.7354 146.574 68.5434C145.611 69.0635 144.997 69.9267 144.914 70.8764C143.385 70.4122 141.669 70.8418 140.707 71.9298C139.744 73.0177 139.768 74.5015 140.764 75.5681C141.778 76.6616 143.5 77.3801 145.06 77.7981C145.878 78.0149 146.72 78.1626 147.574 78.2389C148.006 78.279 150.472 78.5538 150.687 78.2389C152.226 76.2466 153.319 72.5968 152.035 70.1636Z" fill="white"/>
<g opacity="0.72">
<ellipse cx="182.64" cy="62.7808" rx="7.78845" ry="6.44629" fill="#3FBDF1"/>
<path d="M186.019 63.9228C186.211 63.7603 186.372 63.5739 186.496 63.3704C186.955 62.6443 186.69 61.7486 185.877 61.2808C185.356 60.9831 184.697 60.9047 184.096 61.069C184.061 60.327 183.438 59.6934 182.567 59.5155C181.695 59.3375 180.787 59.6583 180.34 60.3019C179.916 61.0108 179.752 61.8066 179.866 62.5918C179.905 62.9796 179.991 63.3631 180.122 63.7367C180.188 63.9285 180.533 65.0248 180.769 65.0592C182.315 65.2738 184.791 64.9733 186.019 63.9228Z" fill="white"/>
</g>
<path d="M173.383 107.104C168.944 105.366 167.263 100.602 169.628 96.4633C171.992 92.3243 177.508 90.3776 181.947 92.1151L183.981 92.9112C188.419 94.6487 190.101 99.4126 187.736 103.552C185.371 107.69 179.856 109.637 175.417 107.9L173.383 107.104Z" fill="#3FBDF1"/>
<path d="M187.475 101.446L184.794 106.138C183.623 108.172 180.689 109.042 178.223 108.087L171.424 105.425C168.968 104.455 167.917 102.026 169.072 99.986L169.252 99.6711C171.099 98.4516 174.291 96.8085 175.456 99.0442C177.134 102.273 179.316 101.231 182.104 99.88C184.431 98.7408 187.226 98.36 187.475 101.446Z" fill="white"/>
<ellipse cx="176.943" cy="94.7274" rx="2.09241" ry="1.7323" fill="white"/>
<path d="M212.642 71.9696C213.058 72.5973 213.36 73.2726 213.537 73.9734C214.182 76.5811 213.12 79.2772 210.743 81.0697C209.816 81.7481 208.637 82.2777 207.699 82.9876C207.016 83.4758 206.512 84.1138 206.247 84.8282C206.198 85.0722 206.08 85.3029 205.901 85.5009C205.355 85.9876 204.818 85.2147 204.345 85.083C203.581 84.8772 202.753 84.9109 202.017 85.1775C198.029 86.5576 193.419 85.4211 190.993 82.4599C188.567 79.4988 188.997 75.533 192.022 72.9772C193.471 71.7549 195.366 70.9734 197.21 70.1776C198.821 69.4706 200.426 68.7177 202.176 68.2941C206.278 67.2778 210.656 68.9696 212.642 71.9696Z" fill="#3FBDF1"/>
<ellipse cx="196.124" cy="79.1819" rx="1.97131" ry="1.63257" fill="white"/>
<ellipse cx="201.433" cy="76.8311" rx="1.97131" ry="1.63184" fill="white"/>
<ellipse cx="206.413" cy="74.6276" rx="1.97131" ry="1.63245" fill="white"/>
<path d="M146.309 21.8975C146.309 21.8975 159.288 55.1261 209.253 53.3313C225.853 51.6138 245.612 53.3313 263.205 72.5105C289.949 101.686 279.211 134.187 267.057 154.818" stroke="#CCDDE2" stroke-width="4.11"/>
<g opacity="0.54">
<path d="M218.531 34.9477C218.482 35.4489 218.388 35.9465 218.251 36.4363L216.695 42.0241C216.217 43.7417 215.681 45.5394 214.201 46.7932C211.434 49.1291 206.834 48.5938 202.989 47.8867L193.547 46.152C191.379 45.7541 189.176 45.3447 187.232 44.4545C185.288 43.5642 183.601 42.1071 183.151 40.3065C182.805 38.9783 183.175 37.6042 183.528 36.2817L184.953 30.9171C185.427 29.1595 185.959 27.3045 187.491 26.0249C190.22 23.7491 194.754 24.2673 198.524 24.9457L208.194 26.6862C214.025 27.7282 218.994 29.9667 218.531 34.9477Z" fill="#3FBDF1"/>
<path d="M205.51 35.097C206.333 35.7304 206.685 36.6794 206.434 37.586C206.182 38.4926 205.364 39.219 204.289 39.4911L201.412 40.2211L198.534 40.951C197.46 41.223 196.291 41.0001 195.469 40.3661C194.647 39.732 194.295 38.7832 194.547 37.8766L195.238 35.4491L195.913 33.0245C196.164 32.1175 196.981 31.3903 198.055 31.1174C199.13 30.8445 200.299 31.0674 201.121 31.702L203.324 33.3995L205.51 35.097Z" fill="white"/>
</g>
<path d="M14.6167 223.68H313.262" stroke="black" stroke-width="4.11"/>
</svg>
