<svg width="334" height="244" viewBox="0 0 334 244" fill="none" xmlns="http://www.w3.org/2000/svg">
<rect x="232.045" y="26.5264" width="78.1398" height="111.599" rx="16.64" stroke="#CCDDE2" stroke-width="4.83"/>
<rect x="238.733" y="38.0234" width="65.5624" height="19.6283" rx="8.32" stroke="#CCDDE2" stroke-width="4.83"/>
<ellipse cx="271.114" cy="44.2641" rx="1.93723" ry="2.03075" fill="#D7E8F0"/>
<path d="M265.701 53.4468C265.701 50.3143 268.124 47.7749 271.114 47.7749C274.104 47.7749 276.527 50.3143 276.527 53.4468H265.701Z" fill="#D7E8F0"/>
<path fill-rule="evenodd" clip-rule="evenodd" d="M271.509 78.6904C265.746 78.6925 261.076 83.5888 261.077 89.6271C261.078 95.6653 265.751 100.559 271.514 100.559C277.277 100.558 281.948 95.6628 281.948 89.6245C281.948 86.724 280.848 83.9423 278.89 81.8916C276.932 79.8409 274.277 78.6894 271.509 78.6904ZM271.509 97.9224C270.695 97.8806 270.056 97.1765 270.056 96.3221C270.056 95.4677 270.695 94.7636 271.509 94.7219C272.323 94.7636 272.962 95.4677 272.962 96.3221C272.962 97.1765 272.323 97.8806 271.509 97.9224ZM273.307 86.5847C273.35 86.2622 273.392 85.9411 273.435 85.6222C273.457 85.4455 273.487 85.2605 273.517 85.0712C273.688 83.9974 273.88 82.7868 272.839 82.1714C271.842 81.5816 270.124 81.6965 269.513 82.8455C268.972 83.8325 269.299 85.3366 269.566 86.5661C269.64 86.9062 269.709 87.2253 269.755 87.5066C270.009 89.2905 270.375 91.0549 270.851 92.7882C271.012 93.3435 272.006 93.3435 272.167 92.7882C272.752 90.7927 273.034 88.6595 273.307 86.5847Z" fill="#D7E8F0"/>
<path fill-rule="evenodd" clip-rule="evenodd" d="M157.327 48.6827C149.845 46.345 141.755 48.9602 136.831 55.3087C131.907 61.6573 131.118 70.4888 134.831 77.685C138.545 84.8811 146.03 89.0246 153.796 88.1832C161.562 87.3418 168.08 81.6812 170.31 73.8411C171.773 68.7009 171.227 63.1623 168.792 58.444C166.357 53.7258 162.233 50.2144 157.327 48.6827ZM147.629 82.7679C146.18 82.2666 145.374 80.6485 145.81 79.1159C146.246 77.5833 147.766 76.6919 149.241 77.1042C150.234 77.3817 151.005 78.2029 151.252 79.2478C151.5 80.2927 151.186 81.3962 150.433 82.1283C149.679 82.8604 148.605 83.1054 147.629 82.7679ZM156.541 63.6443C156.775 63.1044 157.009 62.5668 157.243 62.0334C157.37 61.7338 157.515 61.4238 157.664 61.1066C158.509 59.2987 159.463 57.2582 157.948 55.603C156.468 54.0098 153.368 53.2975 151.716 54.9558C150.259 56.4076 150.08 59.255 149.934 61.5787C149.893 62.2218 149.855 62.8248 149.794 63.347C149.337 66.6453 149.093 69.972 149.062 73.3047C149.066 74.377 150.832 74.9285 151.394 74.0323C153.427 70.813 155.006 67.1786 156.541 63.6443Z" fill="#3FBDF1"/>
<path fill-rule="evenodd" clip-rule="evenodd" d="M103.412 93.4646C99.6747 97.4503 99.7279 103.856 103.531 107.773C107.334 111.69 113.448 111.635 117.187 107.651C120.925 103.666 120.874 97.2601 117.072 93.342C113.267 89.4246 107.152 89.4794 103.412 93.4646ZM115.526 105.941C115.172 106.318 114.654 106.469 114.166 106.337C113.678 106.205 113.294 105.81 113.159 105.3C113.024 104.791 113.158 104.245 113.512 103.867C114.058 103.284 114.951 103.276 115.507 103.848C116.064 104.421 116.072 105.358 115.526 105.941ZM109.563 97.3626C109.385 97.1192 109.207 96.8769 109.031 96.6353C108.932 96.5039 108.834 96.3617 108.733 96.2164C108.167 95.4008 107.532 94.4861 106.487 94.8047C105.485 95.1072 104.44 96.3864 104.754 97.5353C105.028 98.5581 106.197 99.3123 107.148 99.9253C107.404 100.09 107.644 100.245 107.846 100.392C109.128 101.379 110.471 102.275 111.867 103.073C112.32 103.311 112.964 102.633 112.719 102.162C111.845 100.47 110.688 98.8946 109.563 97.3626Z" fill="#3FBDF1"/>
<path d="M245.291 66.4155H296.269" stroke="#CCDDE2" stroke-width="4"/>
<path d="M245.291 71.6737H296.269" stroke="#CCDDE2" stroke-width="4"/>
<path d="M245.291 105.53H296.269" stroke="#CCDDE2" stroke-width="4"/>
<path d="M257.129 110.505H284.426" stroke="#CCDDE2" stroke-width="4"/>
<path d="M310.188 98.6274C314.684 104.548 318.96 111.887 322.827 120.929C346.374 176.026 316.943 203.988 316.943 203.988" stroke="#9F9F9F" stroke-width="4"/>
<path d="M64.2512 142.315C64.2512 142.315 29.3116 100.788 72.881 80.2252C116.45 59.6625 125.077 56.8054 121.933 35.4155C118.79 14.0256 143.498 -7.75492 182.356 6.63778C221.214 21.0305 221.993 48.1537 219.237 69.1223C217.672 81.0754 224.146 83.9478 232.03 83.3465" stroke="#9F9F9F" stroke-width="4"/>
<path fill-rule="evenodd" clip-rule="evenodd" d="M306.065 228.485C307.069 226.446 307.636 224.202 307.724 221.909C307.728 221.818 307.725 221.727 307.717 221.637C307.977 216.562 306.657 210.201 303.525 202.775V202.752C300.63 195.919 296.178 188.198 290.001 179.773L289.964 179.734C284.573 172.385 279.686 166.491 275.555 161.864C275.419 161.712 275.282 161.56 275.145 161.407C274.67 160.877 274.191 160.344 273.706 159.827C273.625 159.736 273.544 159.649 273.465 159.563C273.382 159.473 273.302 159.386 273.223 159.298C267.339 152.944 263.336 149.543 262.064 148.517C261.783 148.272 261.629 148.161 261.629 148.161C229.022 138.318 225.443 178.317 225.443 178.317H225.469L249.227 197.658L249.308 197.719C249.316 197.717 249.325 197.717 249.333 197.719C249.626 197.869 253.617 199.941 255.335 202.357C255.728 202.872 255.987 203.484 256.088 204.135C256.113 204.366 256.081 204.601 255.997 204.816C255.551 205.839 253.833 206.455 251.951 206.838C249.984 207.182 247.997 207.384 246.004 207.444C245.969 207.444 245.658 207.476 245.12 207.531C244.916 207.553 244.68 207.577 244.414 207.604L243.317 207.715C243.035 207.74 242.738 207.771 242.419 207.805C242.282 207.82 242.142 207.835 241.998 207.85L241.011 207.949C240.953 207.953 240.89 207.962 240.824 207.97C240.716 207.984 240.601 207.999 240.492 207.999L239.395 208.11C239.346 208.116 239.295 208.123 239.244 208.13C239.103 208.151 238.957 208.171 238.818 208.171C230.451 209.044 217.523 210.427 215.629 210.81C214.715 211.033 213.762 211.024 212.851 210.783C212.382 210.665 211.947 210.433 211.579 210.105L195.299 197.624C192.612 195.568 190.191 193.554 188.037 191.58C187.609 190.996 187.153 190.436 186.67 189.903C172.404 173.744 171.238 163.434 171.238 163.434C170.987 163.374 170.731 163.337 170.474 163.323C172.51 162.174 176.921 159.67 177.652 158.969C177.679 158.943 177.705 158.917 177.73 158.892C178.629 158.004 179.24 157.401 181.574 160.953C183.976 164.606 193.062 164.84 193.062 164.84C203.184 161.745 202.131 145.315 201.626 139.406C201.122 133.496 198.096 131.846 198.096 131.846C198.191 129.524 197.86 127.204 197.12 125.013C199.51 123.987 237.191 108.644 277.438 140.478C319.026 173.377 323.551 240.993 323.551 240.993H289.726C292.904 240.363 295.928 239.067 298.616 237.183L298.722 237.106C301.7 234.945 304.164 232.096 305.926 228.78C305.979 228.685 306.025 228.587 306.065 228.485ZM214.127 137.049C213.824 137.283 208.41 141.503 209.375 153.158C210.34 164.808 220.798 174.513 221.207 174.873C221.188 174.84 221.149 174.775 221.091 174.681C219.646 172.308 206.724 151.083 214.127 137.049Z" fill="#353642"/>
<path d="M188.929 150.872C188.528 151.181 188.111 151.465 187.679 151.722L185.171 147.126C190.954 144.028 192.577 138.566 190.033 135.568C189.321 134.747 188.404 134.153 187.386 133.852C184.828 133.04 183.055 134.235 181.852 135.84C180.871 137.235 180.151 138.812 179.732 140.489L178.512 125.736L178.417 124.587C178.417 124.587 175.756 123.205 168.548 124.438C161.34 125.671 160.013 129.842 156.917 127.992C153.821 126.142 152.067 126.292 152.067 126.292C151.186 129.681 148.828 129.681 148.828 129.681C148.27 129.61 147.721 129.47 147.194 129.264C143.85 126.043 142.943 120.455 142.943 120.455C146.452 119.999 146.723 116.46 146.321 113.561C148.265 114.771 151.007 114.855 154.855 112.266C165.898 104.867 177.221 108.873 181.202 109.49C182.978 109.761 184.923 109.107 186.535 108.341C186.743 108.731 187.033 109.068 187.383 109.325C190.07 111.286 192.286 113.874 193.856 116.885C204.218 137.18 192.858 147.957 188.929 150.872Z" fill="#3FBDF1"/>
<path d="M147.563 241H151.73C155.441 240.995 158.448 237.845 158.452 233.956V229.069C158.452 228.17 158.11 227.307 157.503 226.671C156.895 226.036 156.072 225.679 155.213 225.68H130.292C130.294 227.781 129.498 229.796 128.08 231.281C126.662 232.767 124.739 233.599 122.734 233.596H32.6816C32.6837 237.684 35.8458 240.997 39.747 241H161.829C162.151 241.001 162.46 240.867 162.688 240.628C162.916 240.39 163.043 240.066 163.043 239.728V231.796C163.043 228.588 165.525 225.986 168.587 225.986C171.65 225.986 174.132 228.588 174.132 231.796V239.728C174.131 240.065 174.258 240.388 174.485 240.627C174.712 240.866 175.021 241 175.342 241H323.551C323.551 241 319.026 173.368 277.438 140.473C237.191 108.639 199.51 123.981 197.119 125.008L197.002 125.054" stroke="black" stroke-width="4.83"/>
<path d="M155.448 141.562C155.444 142.75 154.523 143.71 153.39 143.708C152.257 143.706 151.339 142.742 151.339 141.554C151.339 140.367 152.257 139.403 153.39 139.401C153.549 139.402 153.707 139.422 153.861 139.462C153.425 139.607 153.128 140.032 153.13 140.512C153.128 140.809 153.239 141.094 153.438 141.304C153.637 141.515 153.908 141.634 154.19 141.635C154.719 141.624 155.164 141.219 155.25 140.673C155.376 140.951 155.444 141.254 155.448 141.562Z" fill="black"/>
<path d="M169.706 142.164C169.707 143.038 169.206 143.828 168.436 144.163C167.665 144.499 166.778 144.315 166.188 143.697C165.597 143.079 165.42 142.15 165.739 141.341C166.058 140.533 166.81 140.006 167.644 140.006C167.743 140.006 167.841 140.017 167.936 140.041C167.564 140.221 167.326 140.611 167.326 141.041C167.309 141.438 167.495 141.814 167.815 142.028C168.134 142.242 168.538 142.261 168.875 142.078C169.211 141.895 169.429 141.538 169.446 141.141C169.615 141.453 169.704 141.805 169.706 142.164Z" fill="black"/>
<path fill-rule="evenodd" clip-rule="evenodd" d="M186.151 105.308C185.913 106.985 186.209 108.456 187.386 109.329C190.073 111.29 192.289 113.878 193.859 116.889C206.221 141.09 187.679 151.741 187.679 151.741L185.171 147.145C192.39 143.285 193.128 135.724 187.386 133.871C181.644 132.017 179.732 140.508 179.732 140.508L178.416 124.595C178.416 124.595 175.755 123.212 168.548 124.445C161.34 125.679 160.013 129.849 156.917 128C153.821 126.15 152.066 126.299 152.066 126.299C151.186 129.689 148.828 129.689 148.828 129.689C141.92 128.766 140.297 118.75 140.297 118.75C143.802 118.291 144.073 114.752 143.674 111.857C145.615 113.067 148.36 113.155 152.209 110.562C163.251 103.163 174.575 107.173 178.552 107.789C181.3 108.207 184.455 106.445 186.151 105.308V105.308Z" stroke="black" stroke-width="4.83" stroke-linecap="round" stroke-linejoin="round"/>
<path d="M192.525 225.321L195.256 224.172L197.303 229.959L196.981 240.461L194.214 240.986L183.713 240.511C183.713 240.511 184.444 234.107 186.677 231.062C188.911 228.017 192.525 225.321 192.525 225.321Z" fill="#3FBDF1"/>
<path d="M144.713 133.226C144.713 133.226 147.51 127.967 153.394 128.515" stroke="black" stroke-width="4.83"/>
<path d="M164.919 128.516C164.919 128.516 171.644 126.933 173.998 130.854" stroke="black" stroke-width="4.83"/>
<path d="M175.34 152.322C175.34 152.322 171.319 149.881 168.377 153.986" stroke="black" stroke-width="4.83"/>
<path d="M149.933 129.358C149.933 129.358 147.071 164.635 168.414 163.984C172.069 163.873 175.702 161.357 179.174 157.309" stroke="black" stroke-width="4.83"/>
<path d="M187.679 160.517L179.174 157.308C179.174 157.308 181.283 164.37 191.729 164.91C202.176 165.45 205.681 140.33 198.005 130.223" stroke="black" stroke-width="4.83" stroke-linejoin="round"/>
<path d="M220.934 231.287C220.934 231.287 213.137 237.916 218.433 240.999" stroke="black" stroke-width="4.83"/>
<path d="M214.903 225.117C214.903 225.117 201.378 233.137 212.991 240.999" stroke="black" stroke-width="4.83"/>
<path d="M210.341 218.952C210.341 218.952 192.391 227.76 206.222 241" stroke="black" stroke-width="4.83"/>
<path d="M285.827 241C285.827 241 307.605 241 307.897 218.951C308.189 196.902 265.669 141.537 238.153 133.835C210.637 126.133 209.456 147.24 209.456 148.105C209.456 148.971 207.841 158.063 214.903 167.764C220.356 175.263 244.444 193.984 255.131 202.119C255.935 202.731 256.293 203.801 256.031 204.805C255.768 205.81 254.94 206.54 253.951 206.638L206.682 211.395H206.653C206.207 211.479 189.525 214.704 184.444 220.18C184.444 220.18 181.597 222.39 183.07 225.783C184.543 229.177 189.068 228.058 189.192 227.932" stroke="black" stroke-width="4.83"/>
<ellipse opacity="0.26" cx="167.648" cy="140.002" rx="5.8848" ry="6.16581" fill="white"/>
<ellipse opacity="0.26" cx="152.713" cy="139.393" rx="5.88478" ry="6.16627" fill="white"/>
<path d="M203.581 224.347C201.512 223.742 198.131 223.198 194.648 224.37C192.945 224.945 191.373 225.883 190.031 227.124C189.739 227.392 189.458 227.664 189.187 227.936C188.604 228.535 188.054 229.168 187.539 229.832C187.471 229.92 187.375 229.978 187.268 229.996C185.971 230.184 177.428 231.601 177.472 236.124C177.513 240.188 181.76 240.854 183.222 240.962C183.344 240.973 183.465 240.931 183.556 240.845C183.647 240.76 183.699 240.638 183.701 240.51C183.701 239.062 184.015 234.523 187.433 229.958" stroke="black" stroke-width="4"/>
<path d="M126.618 192.425C127.62 200.885 121.344 204.711 114.483 205.278" stroke="black" stroke-width="4"/>
<path d="M104.512 203.512C99.153 200.48 96.172 194.263 97.0479 187.948C98.1445 179.809 104.724 173.567 111.164 169.606C124.688 161.292 155.165 167.308 160.286 168.534C164.211 169.476 167.494 166.259 168.824 164.704C168.939 164.57 169.119 164.518 169.284 164.571C169.449 164.625 169.569 164.774 169.592 164.953C172.402 182.188 205.047 205.581 212.598 210.816" stroke="black" stroke-width="4"/>
<path d="M134.853 186.574L124.045 193.602C122.742 194.451 121.157 194.684 119.682 194.242C118.207 193.8 116.98 192.724 116.303 191.281C115.053 188.623 115.963 185.404 118.394 183.889L134.842 173.621" stroke="black" stroke-width="4"/>
<ellipse cx="167.647" cy="140.002" rx="5.8848" ry="6.16642" stroke="black" stroke-width="4"/>
<ellipse cx="152.712" cy="139.393" rx="5.00389" ry="5.24307" stroke="white" stroke-width="4"/>
<ellipse cx="152.713" cy="139.393" rx="5.8848" ry="6.16611" stroke="black" stroke-width="4"/>
<path d="M161.792 139.394H158.598" stroke="black" stroke-width="4"/>
<path d="M161.792 148.106H159.687C159.419 148.106 159.165 147.981 158.993 147.765C158.822 147.548 158.752 147.263 158.802 146.987L160.195 139.393" stroke="black" stroke-width="4"/>
<path d="M119.55 169.152C119.55 169.152 112.046 170.848 109.399 182.721C107.791 189.929 105.583 199.124 104.099 205.237C103.714 206.826 104.05 208.512 105.01 209.807C105.97 211.101 107.447 211.859 109.012 211.859C111.387 211.859 113.444 210.132 113.961 207.703L117.101 192.943" stroke="black" stroke-width="4"/>
<path d="M126.41 196.903C126.41 196.903 134.287 191.97 149.803 196.903C165.319 201.836 183.156 205.183 189.041 192.101" stroke="black" stroke-width="4"/>
<path d="M194.652 224.371C194.652 224.371 200.135 230.927 196.802 240.999" stroke="black" stroke-width="4"/>
<path d="M13.4777 142.836H100.105C105.848 142.829 110.848 146.945 112.2 152.794L125.991 212.64C126.745 215.912 126.025 219.365 124.038 222.01C122.051 224.654 119.016 226.198 115.804 226.198H29.3996C23.6679 226.203 18.6761 222.101 17.3156 216.267L3.3018 156.433C2.53507 153.157 3.24725 149.694 5.23337 147.041C7.21949 144.387 10.2592 142.837 13.4777 142.836Z" fill="#3FBDF1"/>
<path d="M16.6322 145.41H97.9081C103.296 145.418 107.983 149.281 109.257 154.767L122.204 210.909C122.912 213.978 122.238 217.218 120.374 219.699C118.51 222.18 115.663 223.628 112.649 223.628H31.5708C26.2 223.616 21.5271 219.773 20.2398 214.31L7.08128 158.164C6.36133 155.09 7.02986 151.841 8.89429 149.351C10.7587 146.862 13.612 145.408 16.6322 145.41V145.41Z" fill="#3FBDF1"/>
<path fill-rule="evenodd" clip-rule="evenodd" d="M13.4777 142.836H100.105C105.848 142.829 110.848 146.945 112.2 152.794L125.99 212.64C126.745 215.912 126.025 219.365 124.038 222.01C122.051 224.654 119.016 226.198 115.804 226.198H29.3996C23.6679 226.203 18.6761 222.101 17.3156 216.267L3.3018 156.433C2.53507 153.157 3.24725 149.694 5.23337 147.041C7.21949 144.387 10.2592 142.837 13.4777 142.836V142.836Z" stroke="black" stroke-width="4.83"/>
<path fill-rule="evenodd" clip-rule="evenodd" d="M48.885 157.469L54.0497 182.697C54.1896 183.402 54.0206 184.136 53.5892 184.696C53.1657 185.248 52.5292 185.574 51.853 185.585L27.1186 185.891H27.0711C26.4006 185.889 25.7678 185.566 25.3532 185.014C25.1252 184.739 24.9668 184.409 24.8926 184.053L18.9165 158.53C18.7479 157.822 18.8996 157.072 19.3278 156.496C19.7559 155.92 20.413 155.583 21.1096 155.581H46.6663C47.7387 155.582 48.664 156.37 48.885 157.469ZM20.7114 157.638C20.6186 157.763 20.5861 157.925 20.6237 158.078L26.2929 182.317C26.9142 179.403 29.0561 174.976 36.4688 179.02C36.4688 179.02 37.9564 163.777 51.0894 177.063L47.1564 157.849C47.1093 157.605 46.9041 157.43 46.6666 157.431H21.1099C20.9537 157.432 20.8065 157.508 20.7114 157.638Z" fill="#D7E8F0"/>
<path d="M28.0031 167.236C29.4286 166.773 30.1048 164.793 29.5199 162.813C28.9351 160.833 27.3013 159.607 25.8648 160.071C24.4283 160.534 23.7631 162.514 24.3516 164.49C24.94 166.467 26.5812 167.7 28.0031 167.236Z" fill="#D7E8F0"/>
<path d="M34.261 166.784H42.6459H45.7748H45.9246C46.2179 166.792 46.5095 166.735 46.7799 166.616C47.1603 166.418 47.4095 166.021 47.4322 165.577C47.455 165.133 47.2476 164.71 46.8896 164.471C46.6927 164.377 46.5132 164.247 46.3596 164.088C46.2578 163.92 46.1883 163.733 46.1549 163.536C45.9613 162.982 45.5872 162.517 45.0986 162.223C44.3802 161.717 43.4961 161.538 42.6496 161.729C42.2363 161.838 41.8579 162.06 41.5531 162.372C41.2935 162.64 41.2424 163 41.0413 163.299C40.9097 163.494 40.8257 163.433 40.6466 163.326C40.4675 163.219 40.3688 163.138 40.2226 163.062C39.9341 162.9 39.6348 162.76 39.3271 162.644C38.7001 162.401 38.0315 162.298 37.3643 162.342C36.1909 162.437 35.0213 163.169 34.6119 164.325C33.8499 164.336 33.2083 164.925 33.0987 165.716C33.0495 166.015 33.1391 166.32 33.3399 166.539C33.6065 166.739 33.9355 166.827 34.261 166.784Z" fill="#D7E8F0"/>
<path fill-rule="evenodd" clip-rule="evenodd" d="M93.701 163.341L94.3735 166.24C94.8714 168.379 94.4047 170.639 93.1075 172.371C91.8102 174.103 89.8261 175.115 87.7248 175.117H78.5431C74.692 175.12 71.3186 172.414 70.3153 168.519L69.5514 165.574C68.9894 163.414 69.4211 161.104 70.7187 159.326C72.0162 157.548 74.0311 156.506 76.1672 156.509H85.4038C89.3434 156.506 92.7726 159.329 93.701 163.341ZM81.0618 168.99L84.2162 166.956H84.2308C84.532 166.77 84.7091 166.423 84.6899 166.058C84.6706 165.692 84.4583 165.368 84.1394 165.217L79.7642 163.191C79.4278 163.04 79.0383 163.105 78.7639 163.359C78.4895 163.613 78.3794 164.01 78.4812 164.379L79.6691 168.446C79.753 168.739 79.9629 168.974 80.2364 169.081C80.5099 169.187 80.8154 169.154 81.0618 168.99Z" fill="white"/>
<path d="M92.3117 192.286H76.1523C74.6408 192.283 73.2733 191.346 72.6652 189.895C72.5731 189.677 72.5234 189.441 72.519 189.202C72.5271 188.24 73.272 187.464 74.1894 187.462H91.3686C90.5609 188.895 90.9702 190.876 92.3117 192.286Z" fill="#D7E8F0"/>
<path d="M102.78 190.547C102.778 191.507 102.036 192.284 101.121 192.286H92.3117C90.9703 190.876 90.5609 188.895 91.3687 187.462H99.1249C100.634 187.463 102.001 188.396 102.612 189.842C102.713 190.062 102.77 190.302 102.78 190.547Z" fill="#3FBDF1"/>
<path d="M98.7192 192.284C98.6735 192.376 98.621 192.464 98.5621 192.548C97.407 194.199 94.9069 194.352 92.966 192.866C92.7341 192.689 92.5154 192.495 92.3117 192.284C90.9703 190.874 90.5609 188.894 91.3687 187.462C91.414 187.37 91.4666 187.283 91.5259 187.201C92.67 185.539 95.181 185.394 97.111 186.868C97.345 187.049 97.5661 187.247 97.7726 187.462C99.125 188.871 99.5161 190.851 98.7192 192.284Z" fill="white"/>
<path d="M106.826 201.193C106.818 202.154 106.073 202.929 105.156 202.931H41.11C41.9288 201.492 41.5194 199.52 40.1743 198.114H103.193C104.703 198.114 106.07 199.05 106.676 200.5C106.771 200.718 106.822 200.954 106.826 201.193Z" fill="#3FBDF1"/>
<path d="M41.111 202.912H33.1318C31.6226 202.912 30.2554 201.98 29.6447 200.533C29.5508 200.311 29.501 200.071 29.4985 199.829C29.4976 199.367 29.6722 198.925 29.9837 198.599C30.2952 198.273 30.7179 198.091 31.158 198.093H40.1752C41.5203 199.499 41.9297 201.472 41.111 202.912Z" fill="#D7E8F0"/>
<path d="M41.1103 202.912C41.0728 203.007 41.0236 203.095 40.9641 203.177C39.8201 204.839 37.309 204.981 35.3754 203.506C35.1425 203.325 34.9226 203.127 34.7175 202.912C33.3834 201.503 32.974 199.534 33.7708 198.094C33.8152 198.001 33.8678 197.913 33.928 197.83C35.083 196.179 37.5831 196.026 39.524 197.508C39.7556 197.685 39.9732 197.881 40.1746 198.094C41.5197 199.5 41.9291 201.472 41.1103 202.912Z" fill="white"/>
<path d="M46.7618 213.448H36.6224C35.1138 213.446 33.7475 212.514 33.1354 211.069C33.0349 210.855 32.9777 210.622 32.9673 210.384C32.9693 209.42 33.7143 208.639 34.634 208.637H45.8078C45.0293 210.085 45.4277 212.054 46.7618 213.448Z" fill="#3FBDF1"/>
<path d="M110.303 211.737C110.29 212.693 109.542 213.459 108.628 213.449H46.7614C45.4273 212.039 45.0179 210.071 45.8147 208.631H106.669C108.18 208.63 109.547 209.567 110.153 211.017C110.249 211.243 110.3 211.489 110.303 211.737Z" fill="#D7E8F0"/>
<path d="M53.1653 213.448C53.1209 213.541 53.0683 213.629 53.0081 213.712C51.864 215.374 49.3529 215.516 47.423 214.041C47.189 213.86 46.9679 213.662 46.7614 213.448C45.4273 212.038 45.0179 210.07 45.8147 208.629C45.8605 208.537 45.913 208.449 45.9719 208.365C47.1269 206.715 49.6271 206.569 51.568 208.044C51.8003 208.219 52.018 208.415 52.2186 208.629C53.5637 210.05 53.9731 212.03 53.1653 213.448Z" fill="white"/>
<g opacity="0.21">
<path fill-rule="evenodd" clip-rule="evenodd" d="M49.7803 158.393L54.9341 183.62C55.0747 184.321 54.9099 185.051 54.4845 185.612C54.0624 186.164 53.4267 186.488 52.752 186.497L28.0212 186.807H27.9627C27.2916 186.807 26.6573 186.485 26.2412 185.934C26.0143 185.658 25.8572 185.328 25.7843 184.972L19.8081 159.446C19.6374 158.746 19.7859 158.002 20.2102 157.432C20.638 156.849 21.2998 156.508 22.0012 156.509H47.5616C48.6339 156.507 49.5603 157.293 49.7803 158.393ZM21.5953 158.566C21.5 158.689 21.4661 158.852 21.5039 159.006L27.1803 183.242C27.798 180.327 29.9436 175.9 37.3526 179.944C37.3526 179.944 38.8366 164.697 51.9732 177.987L48.0402 158.772C47.99 158.53 47.784 158.357 47.5468 158.359H21.99C21.8346 158.358 21.6881 158.435 21.5953 158.566Z" fill="#D7E8F0"/>
<path d="M28.8872 168.159C30.309 167.695 30.9889 165.715 30.4004 163.739C29.8119 161.763 28.1854 160.53 26.7453 160.993C25.3052 161.456 24.6436 163.436 25.2284 165.416C25.8132 167.397 27.4836 168.637 28.8872 168.159Z" fill="#D7E8F0"/>
<path d="M35.1598 167.711H43.541H46.6735H46.8197C47.113 167.72 47.4047 167.663 47.675 167.543C48.0573 167.347 48.3084 166.95 48.3311 166.504C48.3539 166.059 48.1448 165.636 47.7846 165.398C47.5895 165.301 47.4106 165.172 47.2547 165.015C47.156 164.844 47.0867 164.656 47.05 164.46C46.8563 163.907 46.4837 163.444 45.9973 163.15C45.2783 162.642 44.3923 162.463 43.5447 162.656C43.1381 162.766 42.7671 162.988 42.4701 163.299C42.2069 163.567 42.1594 163.924 41.9583 164.226C41.8268 164.421 41.7427 164.36 41.5636 164.249C41.3845 164.138 41.2858 164.065 41.1396 163.985C40.8511 163.824 40.5518 163.686 40.2441 163.571C39.6173 163.327 38.9488 163.223 38.2813 163.265C37.108 163.361 35.9383 164.096 35.5253 165.249C34.7634 165.261 34.1234 165.852 34.0157 166.643C33.9679 166.941 34.0558 167.246 34.2533 167.466C34.5173 167.66 34.8393 167.747 35.1598 167.711Z" fill="#D7E8F0"/>
<path fill-rule="evenodd" clip-rule="evenodd" d="M94.6005 164.268L95.2731 167.163C95.7674 169.304 95.2971 171.564 93.9972 173.294C92.6972 175.024 90.7114 176.034 88.6097 176.033H79.428C75.5761 176.036 72.2013 173.331 71.1966 169.435L70.4327 166.486C69.8748 164.328 70.3084 162.021 71.6055 160.246C72.9025 158.471 74.9149 157.43 77.0485 157.432H86.2997C90.2408 157.43 93.6709 160.255 94.6005 164.268ZM81.9463 169.917L85.1117 167.872C85.4061 167.682 85.5769 167.337 85.5563 166.975C85.5357 166.614 85.327 166.293 85.013 166.141L80.6707 164.119C80.3351 163.968 79.9468 164.033 79.6727 164.286C79.3987 164.539 79.2878 164.934 79.3877 165.302L80.5574 169.373C80.6402 169.666 80.8495 169.901 81.1225 170.008C81.3955 170.115 81.7005 170.081 81.9463 169.917Z" fill="#D7E8F0"/>
<path d="M93.1962 193.207H77.0368C75.5265 193.204 74.1597 192.269 73.5498 190.821C73.3184 190.284 73.3653 189.659 73.6743 189.167C73.9832 188.674 74.5112 188.38 75.074 188.389H92.2532C91.4491 189.818 91.8511 191.802 93.1962 193.207Z" fill="#D7E8F0"/>
<path d="M103.643 191.468C103.643 192.427 102.902 193.205 101.987 193.207H93.1961C91.851 191.802 91.4416 189.818 92.2494 188.389H100.009C101.519 188.388 102.886 189.321 103.496 190.767C103.59 190.988 103.64 191.227 103.643 191.468Z" fill="#3FBDF1"/>
<path d="M99.5999 193.206C99.5569 193.3 99.5042 193.389 99.4428 193.471C98.2877 195.121 95.7876 195.275 93.8467 193.792C93.6158 193.615 93.3983 193.419 93.1961 193.206C91.851 191.801 91.4416 189.817 92.2494 188.389C92.2951 188.296 92.349 188.207 92.4103 188.124C93.5543 186.462 96.0654 186.321 97.9953 187.795C98.2295 187.976 98.4506 188.174 98.6569 188.389C99.991 189.798 100.4 191.766 99.5999 193.206Z" fill="white"/>
<path d="M107.708 202.101C107.7 203.062 106.954 203.836 106.038 203.836H41.9958C42.8145 202.396 42.4052 200.427 41.0601 199.017H104.075C105.587 199.016 106.956 199.955 107.562 201.407C107.656 201.625 107.706 201.862 107.708 202.101Z" fill="#3FBDF1"/>
<path d="M41.995 203.836H34.0121C32.5044 203.835 31.1383 202.905 30.5251 201.461C30.4332 201.238 30.3835 200.999 30.3789 200.756C30.3789 199.795 31.1219 199.017 32.0383 199.017H41.0592C42.4043 200.427 42.8137 202.396 41.995 203.836Z" fill="#D7E8F0"/>
<path d="M41.9953 203.834C41.9578 203.929 41.9073 204.018 41.8454 204.098C40.7014 205.76 38.1903 205.906 36.2604 204.431C36.0261 204.25 35.805 204.05 35.5988 203.834C34.2647 202.429 33.8553 200.456 34.6558 199.016C34.6988 198.922 34.7515 198.834 34.8129 198.752C35.968 197.101 38.4681 196.948 40.409 198.434C40.6389 198.611 40.8564 198.806 41.0596 199.016C42.4047 200.426 42.814 202.394 41.9953 203.834Z" fill="white"/>
<path d="M47.6422 214.387H37.4882C35.981 214.384 34.6159 213.454 34.0012 212.012C33.9094 211.793 33.8597 211.557 33.855 211.318C33.859 210.353 34.6045 209.572 35.5254 209.567H46.6992C45.8987 211.008 46.3081 212.981 47.6422 214.387Z" fill="#3FBDF1"/>
<path d="M111.187 212.659C111.186 213.119 111.011 213.56 110.699 213.884C110.388 214.208 109.966 214.389 109.528 214.387H47.6422C46.3081 212.981 45.8987 211.008 46.6992 209.567H107.55C109.062 209.567 110.431 210.506 111.037 211.958C111.132 212.179 111.183 212.417 111.187 212.659Z" fill="#D7E8F0"/>
<path d="M54.0497 214.386C54.004 214.479 53.9502 214.567 53.8889 214.65C52.7448 216.312 50.2337 216.458 48.3038 214.983C48.0696 214.801 47.8485 214.602 47.6422 214.386C46.3081 212.98 45.8987 211.008 46.6992 209.568C46.7422 209.474 46.7949 209.385 46.8564 209.304C48.0114 207.653 50.5115 207.511 52.4524 208.986C52.6824 209.163 52.8998 209.358 53.103 209.568C54.4481 210.977 54.8575 212.957 54.0497 214.386Z" fill="white"/>
</g>
</svg>
