<svg width="19" height="18" viewBox="0 0 19 18" fill="none" xmlns="http://www.w3.org/2000/svg">
<path d="M8.04108 1.20563L8.97815 0.290588C9.37493 -0.0968628 10.0165 -0.0968628 10.4091 0.290588L18.6148 8.29929C19.0116 8.68674 19.0116 9.31326 18.6148 9.69659L10.4091 17.7094C10.0123 18.0969 9.37071 18.0969 8.97815 17.7094L8.04108 16.7944C7.64008 16.4028 7.64853 15.7639 8.05797 15.3806L13.1443 10.6487H1.01305C0.451651 10.6487 0 10.2077 0 9.65949V8.34051C0 7.79231 0.451651 7.35127 1.01305 7.35127H13.1443L8.05797 2.61942C7.64431 2.23609 7.63586 1.59721 8.04108 1.20563Z" fill="#001CAA"/>
</svg>
